<svg width="800" height="800" viewBox="0 0 800 800" fill="none" xmlns="http://www.w3.org/2000/svg">
<path d="M376.719 34.2344C236.563 34 106.422 38.0937 108.063 47.1562L142.562 103.625C235.312 95.6562 323.75 92.7656 412.344 93.3594C495.469 93.9062 578.75 97.5312 665.625 102.875L714.375 50.875C707.344 40.3437 535.625 34.5 376.719 34.2344ZM382.656 121.437C305.937 121.625 229.062 124.547 148.766 131.312C114.719 324.531 95.8594 560.312 140.172 705.781L98.875 754.219C299.062 769.219 502.812 774.062 696.719 764.062L650 708.437C680.156 542.5 670.781 315.937 650.313 130.125C570.313 125.344 493.594 122.156 417.031 121.547L626.719 314.062H515.312C521.25 350.156 547.188 398.906 574.531 444.062C590 469.687 605.781 494.531 617.812 516.406C629.844 538.281 639.063 556.562 639.063 575C639.063 618.75 609.531 654.687 566.094 677.969C522.656 701.406 464.375 714.062 400 714.062C335.625 714.062 277.344 701.406 233.906 677.969C190.469 654.687 160.938 618.75 160.938 575C160.938 556.25 170.625 537.969 183.281 515.781C195.938 493.594 212.344 468.594 228.281 442.656C256.406 397.187 282.031 348.125 285.625 314.062H162.5L382.656 121.437ZM399.844 143.891L237.5 285.937H312.969L314.063 298.75C318.281 348.594 284.531 405 252.187 457.5C235.937 483.75 219.688 508.594 207.813 529.687C195.781 550.625 189.063 568.75 189.063 575C189.063 597.812 200 617.969 220.469 635.312C305.156 624.687 348.594 618.75 386.719 617.5C387.656 604.219 389.375 590.937 391.563 578.125C334.375 581.719 281.719 566.406 229.844 547.969C253.125 502.969 295.938 471.562 334.531 471.719C341.719 471.719 348.75 472.656 355.469 475C372.969 480.625 388.75 512.031 399.219 538.437C402.656 522.031 405.938 507.969 407.344 497.656V497.5C408.75 487.812 404.844 460 399.844 437.031C396.25 420.469 392.5 405.937 390.625 399.062C380.781 399.062 372.031 397.187 366.25 391.25C326.562 350 352.344 273.75 386.406 231.25C410.625 271.562 442.187 315 473.906 345C467.031 368.125 454.531 386.719 430.312 395C427.031 395.312 422.969 395.781 418.906 396.406C421.094 404.531 424.219 416.719 427.344 430.937C429.375 439.844 431.25 449.062 432.813 458.281C441.094 450.625 450.625 443.594 458.437 443.281H460.156C503.906 447.344 553.438 489.531 565.938 551.094C522.969 531.406 473.75 542.812 434.844 503.906C430.469 532.969 418.281 576.719 415 617.656C452.656 618.906 496.094 624.844 579.531 635.312C600 617.969 610.938 597.812 610.938 575C610.938 568.437 604.531 550.625 593.125 530C581.719 509.219 566.25 484.687 550.469 458.594C519.062 406.719 485.938 350.312 485.938 300V285.937H554.531L399.844 143.891ZM400 645.156C365.156 645.156 328.281 649.844 258.281 658.75C295.313 675.781 345 685.937 400 685.937C455 685.937 504.688 675.781 541.719 658.75C471.719 649.844 434.844 645.156 400 645.156Z" fill="#356E48"/>
</svg>
