<svg width="800" height="800" viewBox="0 0 800 800" fill="none" xmlns="http://www.w3.org/2000/svg">
<path d="M512.158 132.779V0H155.406V132.431H201.389C201.432 195.73 201.492 299.996 201.524 399.995H201.354V666.653C201.354 666.653 334.687 798.638 334.687 799.989C334.687 801.341 467.577 665.748 468.023 666.653C468.383 667.386 468.156 489.25 468.059 421.616H503.38C583.068 421.616 644.591 357.844 644.591 276.431V274.934C644.589 198.297 587.833 137.62 512.158 132.779ZM313.061 665.756C301.12 665.756 291.439 656.075 291.439 644.135C291.439 632.194 301.12 622.513 313.061 622.513C325.001 622.513 334.682 632.194 334.682 644.135C334.682 656.075 325.001 665.756 313.061 665.756ZM356.303 533.325C344.363 533.325 334.682 523.644 334.682 511.704C334.682 499.764 344.363 490.083 356.303 490.083C368.244 490.083 377.925 499.764 377.925 511.704C377.925 523.644 368.244 533.325 356.303 533.325ZM423.759 132.431L422.97 132.468V399.995H244.764C244.759 384.519 244.667 190.538 244.629 132.431H423.759ZM601.346 276.431C601.346 333.593 558.82 378.373 503.377 378.373H466.213V175.673H503.377C559.741 175.673 601.346 218.346 601.346 274.937V276.431Z" fill="#356E48"/>
<path d="M313.061 244.14C325.002 244.14 334.682 234.46 334.682 222.519C334.682 210.578 325.002 200.897 313.061 200.897C301.12 200.897 291.439 210.578 291.439 222.519C291.439 234.46 301.12 244.14 313.061 244.14Z" fill="#356E48"/>
<path d="M356.303 354.949C368.244 354.949 377.925 345.269 377.925 333.328C377.925 321.387 368.244 311.707 356.303 311.707C344.362 311.707 334.682 321.387 334.682 333.328C334.682 345.269 344.362 354.949 356.303 354.949Z" fill="#356E48"/>
</svg>
