<svg width="800" height="800" viewBox="0 0 800 800" fill="none" xmlns="http://www.w3.org/2000/svg">
<path fill-rule="evenodd" clip-rule="evenodd" d="M362.413 86.2872C340.685 55.2478 293.673 58.711 276.73 92.5997L276.207 93.6467C252.713 85.8092 225.26 95.5577 213.16 119.757C203.145 139.785 207.072 163.973 222.905 179.807L261.877 218.778C269.857 226.758 279.373 233.035 289.852 237.227L316.26 247.79C283.127 249.165 244.142 253.457 208.867 263.51C189.793 268.947 175.075 282.65 170.838 300.062C166.311 318.67 174.81 337.268 193.847 347.727C205.692 354.235 220.692 360.828 239.705 367.317C241.277 367.853 242.865 368.337 244.465 368.767C225.803 387.148 199.057 404.968 161.393 417.523L171.933 449.147C226.043 431.11 261.678 402.802 284.072 374.45C306.313 376.497 327.99 376.655 347.305 373.393C368.427 369.828 388.272 361.837 402.422 346.542C409.547 348.788 417.132 350 425 350C430.147 350 435.172 349.482 440.025 348.495C436.733 357.508 434.35 366.943 433.593 376.853C431.03 410.355 447.29 442.827 489.05 479.23L510.953 454.103C473.048 421.06 465.408 397.977 466.828 379.395C467.442 371.375 469.8 363.127 473.653 354.097C475.645 360.153 478.127 366.24 481.178 372.223C495.085 399.495 520.638 424.083 563.26 432.98L570.072 400.35C538.17 393.692 520.598 376.15 510.873 357.08C506.058 347.637 503.132 337.707 501.547 328.427C508.723 331.582 516.657 333.333 525 333.333C548.27 333.333 568.358 319.708 577.72 300H666.667V266.667H582.743C578.698 238.398 554.387 216.667 525 216.667C510.062 216.667 496.435 222.282 486.115 231.517C475.99 217.31 461.035 206.785 443.647 202.337L362.413 86.2872ZM304.938 342.423C318.372 342.913 330.773 342.38 341.757 340.527C347.485 339.558 352.645 338.272 357.263 336.658L334.653 329.122C329.783 327.498 323.845 328.083 317.458 331.522C312.713 334.075 308.325 337.923 304.938 342.423ZM354.48 300.595C352.195 294.297 350.728 287.607 350.21 280.652C315.137 280.12 262.788 282.803 218.002 295.567C208.307 298.33 204.135 304.215 203.227 307.943C202.792 309.733 202.97 311.287 203.638 312.698C204.313 314.127 205.945 316.342 209.897 318.513C219.705 323.902 232.868 329.762 250.472 335.77C252.777 336.557 255.2 337.15 257.662 337.533C261.198 338.085 264.703 338.598 268.17 339.07C269.642 336.653 270.99 334.272 272.222 331.942C278.752 319.587 289.243 308.852 301.662 302.168C314.15 295.447 329.673 292.325 345.195 297.5L354.48 300.595ZM403.51 203.125L335.105 105.403C327.862 95.0562 312.192 96.2107 306.543 107.507L303.61 113.373L395.122 204.885L392.727 207.28C396.183 205.63 399.787 204.237 403.51 203.125ZM272.905 129.807L368.627 225.53C367.07 227.303 365.595 229.152 364.208 231.067L302.232 206.277C295.945 203.762 290.235 199.997 285.447 195.208L246.475 156.237C240.787 150.549 239.377 141.859 242.973 134.664C248.678 123.254 263.885 120.787 272.905 129.807ZM383.333 275C383.333 251.988 401.988 233.333 425 233.333C448.012 233.333 466.667 251.988 466.667 275C466.667 298.012 448.012 316.667 425 316.667C401.988 316.667 383.333 298.012 383.333 275ZM500 275C500 288.807 511.193 300 525 300C538.807 300 550 288.807 550 275C550 261.193 538.807 250 525 250C511.193 250 500 261.193 500 275ZM416.667 583.333H476.432L383.335 676.432L261.787 554.883L238.217 578.453L359.763 700H200V733.333H600V700H406.907L500 606.907V666.667H533.333V550H416.667V583.333Z" fill="#356E48"/>
</svg>
