<svg width="800" height="800" viewBox="0 0 800 800" fill="none" xmlns="http://www.w3.org/2000/svg">
<g clip-path="url(#clip0_169_17)">
<path d="M583.268 208.746C583.238 208.752 583.217 208.748 583.186 208.746C544.31 208.746 508.569 181.293 481.625 152.237L526.583 144.068C539.911 141.647 550.353 129.137 550.353 115.59V103.667H557.214C567.553 103.667 575.965 95.2549 575.965 84.9163V61.9555C575.965 51.617 567.553 43.2052 557.214 43.2052H550.353V43.1215C550.353 29.0235 538.882 17.5529 524.784 17.5529H341.656C327.558 17.5529 316.088 29.0235 316.088 43.1215V155.057C316.088 157.035 316.335 158.925 316.757 160.731V269.612H262.942C233.28 269.612 203.92 292.029 196.105 320.648L171.787 409.702C165.759 431.784 159.401 468.303 157.623 491.02L136.648 741.856C135.444 757.228 140.416 771.786 150.646 782.847C160.874 793.909 174.999 800 190.417 800H534.949C550.367 800 564.49 793.909 574.72 782.847C584.952 771.784 589.922 757.228 588.71 741.767L567.749 491.11C565.962 468.299 559.607 431.779 553.579 409.702L529.264 320.647C521.448 292.029 492.089 269.612 462.425 269.612H379.826V170.732L432.982 161.074C466.468 202.344 519.618 251.361 583.19 251.361C583.217 251.361 583.259 251.361 583.286 251.361C595.052 251.35 604.587 241.805 604.576 230.037C604.565 218.274 595.029 208.746 583.268 208.746ZM496.378 329.627L517.137 405.668H379.826V303.703H462.425C476.739 303.702 492.605 315.817 496.378 329.627ZM316.757 405.668H208.227L228.99 329.629C232.762 315.817 248.627 303.702 262.941 303.702H316.756V405.667H316.757V405.668Z" fill="#356E48"/>
<path d="M611.748 40.4471C613.452 40.4471 615.186 40.1046 616.848 39.3778L650.972 24.5059C657.447 21.6863 660.405 14.1529 657.584 7.67974C654.765 1.20785 647.234 -1.75555 640.758 1.06798L606.634 15.9399C600.159 18.7595 597.201 26.2928 600.022 32.766C602.119 37.5765 606.816 40.4471 611.748 40.4471Z" fill="#356E48"/>
<path d="M650.971 116.916L616.847 102.044C610.371 99.2183 602.84 102.183 600.021 108.656C597.2 115.128 600.159 122.663 606.633 125.482L640.757 140.354C642.421 141.081 644.153 141.424 645.857 141.424C650.791 141.424 655.486 138.553 657.583 133.742C660.404 127.269 657.446 119.736 650.971 116.916Z" fill="#356E48"/>
<path d="M650.742 57.9255H611.74C604.678 57.9255 598.956 63.647 598.956 70.7098C598.956 77.7725 604.678 83.4941 611.74 83.4941H650.742C657.804 83.4941 663.527 77.7725 663.527 70.7098C663.527 63.647 657.805 57.9255 650.742 57.9255Z" fill="#356E48"/>
</g>
<defs>
<clipPath id="clip0_169_17">
<rect width="800" height="800" fill="white"/>
</clipPath>
</defs>
</svg>
