<svg width="800" height="800" viewBox="0 0 800 800" fill="none" xmlns="http://www.w3.org/2000/svg">
<path d="M333.331 533.339C333.331 546.633 337.345 558.966 344.078 569.38L428.252 473.18C419.637 469.113 410.131 466.673 399.998 466.673C363.237 466.672 333.331 496.578 333.331 533.339Z" fill="#356E48"/>
<path d="M400 600C436.759 600 466.667 570.094 466.667 533.333C466.667 516.373 460.094 501.027 449.627 489.253L362.72 588.573C373.373 595.786 386.2 600 400 600Z" fill="#356E48"/>
<path d="M560 722.453V344.214C575.48 338.694 586.667 324.028 586.667 306.667C586.667 284.614 568.72 266.667 546.667 266.667H545.988C539.628 196.427 483.573 140.373 413.334 134.014V106.667H426.988C441.52 106.667 453.334 94.8531 453.334 80.3203V26.3469C453.333 11.8141 441.52 0 426.986 0H373.012C358.48 0 346.666 11.8141 346.666 26.3469V80.3203C346.666 94.8531 358.48 106.667 373.012 106.667H386.666V134.014C316.425 140.373 260.372 196.428 254.012 266.667H253.333C231.28 266.667 213.333 284.614 213.333 306.667C213.333 324.027 224.519 338.694 240 344.214V722.453C224.52 727.973 213.333 742.639 213.333 760C213.333 782.053 231.28 800 253.333 800H546.666C568.719 800 586.666 782.053 586.666 760C586.667 742.641 575.48 727.973 560 722.453ZM253.333 293.333H546.666C554.013 293.333 559.998 299.319 559.998 306.666C559.998 314.013 554.013 319.998 546.666 319.998H253.333C245.986 319.998 240 314.013 240 306.666C240 299.32 245.986 293.333 253.333 293.333ZM493.333 533.333C493.333 584.8 451.466 626.666 400 626.666C348.534 626.666 306.667 584.798 306.667 533.333C306.667 481.866 348.534 440 400 440C451.466 440 493.333 481.867 493.333 533.333ZM546.667 773.333H253.333C245.986 773.333 240 767.347 240 760C240 752.653 245.986 746.667 253.333 746.667H546.666C554.013 746.667 559.998 752.653 559.998 760C559.998 767.347 554.014 773.333 546.667 773.333Z" fill="#356E48"/>
</svg>
