<svg width="800" height="800" viewBox="0 0 800 800" fill="none" xmlns="http://www.w3.org/2000/svg">
<path d="M309.5 436.1C309.5 405.2 282.05 379.7 242.525 368.225V343.55C239.075 347.525 234.05 350.05 228.4 350.05C218.025 350.05 209.625 341.55 209.625 331.075C209.625 320.6 218.025 312.1 228.4 312.1C234.025 312.1 239.075 314.625 242.525 318.6V293C242.525 282.6 221.175 274.65 194.85 274.65C168.525 274.65 147.175 282.575 147.175 293V367.85C107.65 378.775 80.175 403.5 80.175 436.1C80.175 438.7 80.875 441.225 82.2 443.675H80.475V787.6H309.225V443.675H307.5C308.825 441.225 309.5 438.675 309.5 436.1ZM769.25 112.5C742.5 49.3 660.125 39.725 615.275 96.15C555.85 -27.1 395.525 59.5 436.7 161.7C395.775 165.375 372 204.55 376.8 240.325C392.95 289.6 429.65 310.55 473.05 310.8C430.4 321.975 386.925 319.425 360.05 283.325L233.175 331.175L401.675 411.35C428.725 381.05 469.575 379.425 509.725 389.925C478.475 390.1 450.675 401.05 431.55 425.575L432 425.8C429.875 428.125 428.025 430.475 426.4 432.825C425.275 434.575 424.175 436.375 423.125 438.225C403.825 474.925 441.425 512.275 480.275 504.125C444.55 560.85 509.1 604.975 554.65 593.125C538.975 552.925 558.325 515.125 588.575 484.525C566.575 523.125 566.925 566.5 604.025 605.85C645.05 634.65 719.8 629.85 733.65 561.2C744.05 572.825 766.7 581.625 778.3 583.15V108.85L769.2 112.5H769.25ZM514.05 255.875C516.15 217.875 508.775 194.625 479.825 171.925C517.275 185.45 554.475 184.85 596.175 160.15C554.65 195.45 531.525 207.975 514.05 255.875ZM642.625 329.825C604.25 340.725 573.975 384.075 588.275 427.575C540.775 384.55 580.2 317.175 626.725 310.6C612.2 286.05 611.1 253.7 638.1 229.25C620.05 284.1 672.9 338.725 723.5 328.325C698.025 355.5 665.15 349.7 642.625 329.825Z" fill="#356E48"/>
</svg>
