<svg width="800" height="800" viewBox="0 0 800 800" fill="none" xmlns="http://www.w3.org/2000/svg">
<g clip-path="url(#clip0_169_26)">
<path d="M793.107 493.982C769.53 460.553 745.95 459.767 686.145 491.236L571.212 561.505C562.229 566.289 548.234 569.288 532.04 571.142C519.459 572.595 508.034 578.06 497.519 585.11C496.161 586.03 494.694 586.604 493.162 586.604H363.634C323.648 586.604 323.648 606.664 323.648 613.261C323.648 620.618 317.677 626.589 310.32 626.589C302.963 626.589 296.992 620.618 296.992 613.261C296.992 579.873 321.903 559.947 363.636 559.947H472.97C481.62 559.947 488.032 551.244 484.766 543.22C482.953 538.769 480.447 534.144 477.236 529.358C456.364 498.196 420.55 479.602 381.456 479.602H329.46C301.229 479.602 274.094 470.873 253.087 455.038C205.263 418.971 130.024 457.943 93.303 481.281V453.318H0V799.863H93.2998V759.877H266.546C293.843 759.877 321.101 757.81 348.091 753.72L520.871 727.449C527.148 727.369 533.533 726.623 539.197 725.344C555.112 723.104 570.333 715.506 583.208 703.351L785.243 546.021L785.563 545.768C801.304 533.233 804.716 510.429 793.107 493.982ZM66.6436 500.059V759.874V773.202H26.6578V479.973H66.6436V500.059Z" fill="#356E48"/>
<path d="M239.915 240.057C328.111 240.057 399.859 168.309 399.859 80.1139C399.859 72.7571 393.887 66.7858 386.531 66.7858C298.335 66.7858 226.587 138.534 226.587 226.729C226.587 234.086 232.558 240.057 239.915 240.057Z" fill="#356E48"/>
<path d="M301.885 290.261C294.982 292.848 291.489 300.525 294.074 307.415C309.069 347.454 338.738 379.243 377.592 396.93C398.717 406.541 421.176 411.366 443.715 411.366C462.668 411.366 481.661 407.953 499.948 401.102C506.852 398.529 510.345 390.838 507.76 383.949C492.765 343.91 463.108 312.121 424.242 294.433C385.389 276.758 341.924 275.267 301.885 290.261Z" fill="#356E48"/>
<path d="M480.58 224.419C482.647 224.419 484.738 223.94 486.698 222.926C565.003 182.367 595.713 85.6541 555.154 7.3349C553.528 4.20319 550.729 1.83059 547.357 0.763784C543.984 -0.303026 540.318 0.0046774 537.187 1.63067C458.882 42.2023 428.172 138.902 468.731 217.222C471.102 221.793 475.755 224.419 480.58 224.419Z" fill="#356E48"/>
</g>
<defs>
<clipPath id="clip0_169_26">
<rect width="800" height="800" fill="white"/>
</clipPath>
</defs>
</svg>
