<svg width="800" height="800" viewBox="0 0 800 800" fill="none" xmlns="http://www.w3.org/2000/svg">
<g clip-path="url(#clip0_170_34)">
<path d="M773.917 0.0625C766.116 0.0625 234.892 0.0625 234.892 0.0625C214.134 0.0625 194.225 8.30781 179.545 22.9875L15.2781 187.256C-5.09221 207.625 -5.09221 240.652 15.2781 261.022C35.6484 281.392 68.6734 281.391 89.0437 261.022L238.033 112.031C242.923 107.141 249.555 104.394 256.47 104.394H495.698C510.098 104.394 521.781 116.069 521.781 130.477C521.781 144.884 510.098 156.559 495.698 156.559H278.341C248.602 156.559 224.672 181.445 226.248 211.53C227.727 239.739 253.045 260.891 281.292 260.891H354.264C365.812 260.891 382.3 262.903 395.256 272.48C462.564 322.227 555.219 325.589 626.114 286.323V339.139C626.114 353.547 637.797 365.222 652.197 365.222H773.917C788.317 365.222 800 353.547 800 339.139V26.1453C800 11.7375 788.317 0.0625 773.917 0.0625ZM747.834 313.058H678.28V52.2281H747.834V313.058Z" fill="#356E48"/>
<path d="M773.917 513.027H730.309C652.773 513.027 574.033 539.322 496.259 591.181C443.831 626.134 356.267 626.117 303.864 591.181C226.091 539.322 147.35 513.027 69.8141 513.027H26.2078C11.8078 513.027 0.125 524.702 0.125 539.109V773.855C0.125 788.263 11.8078 799.938 26.2078 799.938H773.917C788.317 799.938 800 788.263 800 773.855V539.109C800 524.7 788.317 513.027 773.917 513.027Z" fill="#356E48"/>
<path d="M408.753 417.395C423.158 417.395 434.836 405.718 434.836 391.313C434.836 376.907 423.158 365.23 408.753 365.23C394.348 365.23 382.67 376.907 382.67 391.313C382.67 405.718 394.348 417.395 408.753 417.395Z" fill="#356E48"/>
<path d="M513.086 417.395C527.491 417.395 539.169 405.718 539.169 391.313C539.169 376.907 527.491 365.23 513.086 365.23C498.681 365.23 487.003 376.907 487.003 391.313C487.003 405.718 498.681 417.395 513.086 417.395Z" fill="#356E48"/>
<path d="M460.92 521.727C475.326 521.727 487.003 510.049 487.003 495.644C487.003 481.239 475.326 469.561 460.92 469.561C446.515 469.561 434.838 481.239 434.838 495.644C434.838 510.049 446.515 521.727 460.92 521.727Z" fill="#356E48"/>
<path d="M304.422 417.395C318.827 417.395 330.505 405.718 330.505 391.313C330.505 376.907 318.827 365.23 304.422 365.23C290.017 365.23 278.339 376.907 278.339 391.313C278.339 405.718 290.017 417.395 304.422 417.395Z" fill="#356E48"/>
<path d="M356.587 521.727C370.993 521.727 382.67 510.049 382.67 495.644C382.67 481.239 370.993 469.561 356.587 469.561C342.182 469.561 330.505 481.239 330.505 495.644C330.505 510.049 342.182 521.727 356.587 521.727Z" fill="#356E48"/>
</g>
<defs>
<clipPath id="clip0_170_34">
<rect width="800" height="800" fill="white"/>
</clipPath>
</defs>
</svg>
