<svg xmlns="http://www.w3.org/2000/svg" viewBox="0 0 332.73 256"><defs><style>.cls-1{fill:#00471a;}.cls-2{fill:#01481b;}.cls-3{fill:#02481b;}.cls-4{fill:#03491d;}.cls-5{fill:#01471b;}.cls-6{fill:#064b1f;}.cls-7{fill:#04491d;}.cls-8{fill:#02481c;}.cls-9{fill:#fdfdfd;}</style></defs><title>Recurso 1digital rain firma</title><g id="Capa_2" data-name="Capa 2"><g id="Capa_1-2" data-name="Capa 1"><path class="cls-1" d="M142.26,104.93c18.22-8,26.58-25.87,35.31-43.33,4.29-8.59,8.29-17.4,13.62-25.28,5.47-8.06,12.16-13.85,21.8-15.12l-6.33,13.67c9-4.62,15.16-12.7,25-11.85-2.93,2.83-5.73,5.15-8.13,7.92-4.09,4.71-5.66,9.64-1.9,16.07,5.86,10,5.6,20.43-.32,30.5-9.83,16.71-22.53,30.19-36.91,41.6-7.63,6-16,5.83-24.12.91C153.88,116.16,148.23,111.09,142.26,104.93Z"/><path class="cls-1" d="M129.43,102.4c2.23-5.22,5.29-8.91,5.21-15.22-6.92,7.2-13.67,13.44-23.34,13.55,1.09-2.8,3.19-3.62,4.77-5,7.47-6.81,8.12-10.92,3.65-20.8-4.19-9.25-4.34-18.43.77-27.48C130.31,30,143.34,16.27,158.07,4.55c7.42-5.89,15.59-5.81,23.61-1.2,6.67,3.85,12.42,9.19,18.61,15.35-15.94,7.07-24.48,21.57-32.25,37-5.38,10.67-10.17,21.75-16.81,31.57C145.89,95.18,139.41,100.94,129.43,102.4Z"/><path class="cls-1" d="M166,241.3c18.5,0,37,.33,55.5-.19,5.87-.17,5.24,3.25,5.21,7.42s.77,7.53-5.16,7.47q-55.5-.56-111,0c-5.85.06-5.23-3.24-5.2-7.42s-.78-7.64,5.16-7.47C129,241.63,147.48,241.3,166,241.3Z"/><path class="cls-2" d="M69.82,200.71c-.68,5.11-1.78,9.86-7.77,11.32,0-16.69,0-32.78,0-48.88,0-2.08.08-3.9,2.53-3.94s5-.5,6.22,3.24c2.46,7.41,5.25,14.68,8.53,23.76,3.1-8.27,5.93-15,8.14-22,1.34-4.21,3.46-5.84,7.1-5,4,1,2.09,4.7,2.13,7.11.2,12.54,0,25.09.11,37.63,0,3.35-.36,5.26-4,5.44-4.07.19-3.82-2.33-3.8-5.39.07-7,0-14,0-22.4-3.26,5.09-4,10-5.81,14.26-.86,2-.75,5-3.69,5.17s-3-2.81-3.76-4.87c-1.26-3.31-2.45-6.65-3.67-10-2.21-.85-1.75,1.13-1.83,2.34C70,192.59,70.68,196.69,69.82,200.71Z"/><path class="cls-3" d="M246.32,181.54c7.32,1.13,9.1-2.45,8.87-8.35-.17-4.28-1.78-6.69-5.67-7.2-3.31-.44-5.05.17-4.93,4.77.28,10.86.17,21.74,0,32.61,0,2.36,1.61,6.13-3.12,5.89-3.57-.18-4.68-1.58-4.61-5.64.21-13.29.17-26.58,0-39.87,0-3.36.79-5,3.9-4.76s6.37.13,9.55.32c5.18.32,10,2,11.62,8.19,1.68,6.37,2.35,13.07-3.25,17.81-2.42,2-1.51,4-.71,6.27,2.15,6.18,4.2,12.41,6.82,20.2C250.63,207.13,252.88,192.15,246.32,181.54Z"/><path class="cls-3" d="M8,189.67c0,5.07,0,10.14,0,15.2,0,2.77.42,5.64,3.56,5.7,2.76.05,5.43-1.5,5.42-4.83,0-5.74,3.49-5.94,6.32-4.9,3.73,1.38,1.6,5.28.84,7.83-2.06,6.92-9.78,11.88-15.79,10.44C4,218.07.82,215.37.53,210a359.11,359.11,0,0,1,0-39.78,12.08,12.08,0,0,1,12.62-11.48c6.35.33,11.43,5.78,11.77,12.71.1,2.11.65,4.84-2.47,4.38-1.89-.28-5,2.08-5.26-2.64-.19-3.66-1.74-6.1-5.17-5.74-3.67.38-3.9,3.76-4,7q-.12,4-.16,8c0,2.42,0,4.83,0,7.24Z"/><path class="cls-2" d="M160.3,183.22c0,2.89-.1,5.8,0,8.69.25,5.73-.89,10.66-6,13.07-5.6,2.63-11.17,2.69-16.39-1.27-2.5-1.9-3.41-4.8-3.39-8.14,0-8.45-.1-16.91.15-25.35.21-6.86,5.19-11.27,12.35-11.49,6.9-.22,12.52,4.17,13.08,10.74.38,4.54.07,9.16.07,13.75Z"/><path class="cls-2" d="M43.19,176.11c-2.45,12.35-4.55,22.86-6.62,33.36-.24,1.18-.31,2.4-.6,3.56-.91,3.55-3.89,3-5.86,2.85-3.36-.23-1.39-3.5-1.09-5,3.16-15.74,6.59-31.41,9.83-47.13.54-2.58,1-4.38,3.93-4.5s4,1.51,4.65,4.43c3.26,15,6.62,29.91,9.93,44.86.25,1.1,1.15,2.33.23,3.32s-2.45.59-3.57,0c-3-1.46-4.42-4.26-5.12-7.77C47.19,195.43,45.38,186.78,43.19,176.11Z"/><path class="cls-4" d="M209,182.81c0-6.27.1-12.55,0-18.82-.07-3.13.41-5.06,3.74-4.92,5.3.22,10.62.17,15.92.06,2.44,0,3.34,1,3.38,3.77s-1.39,3-3.23,2.94c-1.27-.05-2.54,0-3.82,0-8.4,0-9.95,2.35-8.23,11.83.4,2.24,1.33,2.7,3,2.7,2.12,0,4.25,0,6.37.13,1.14.08,2.79-.67,3.19,1.25s-.92,3.16-2.17,4a10,10,0,0,1-5.5,1.47c-1.7.05-4.38-1.39-4.71,1.83-.35,3.51-.86,7.25.38,10.66.55,1.48,2.28.83,3.5.91,3,.2,5.94.26,8.9.47,2.44.18,2.25,2.27,2.31,4.24.08,2.32-1,2.84-2.74,2.73-5.73-.34-11.45-.7-17.18-.87-3.07-.1-3.17-2.2-3.14-4.84.09-6.52,0-13,0-19.55Z"/><path class="cls-5" d="M114,183.23c7.14.85,8.43-3.36,8.24-9.3-.14-4.41-1.29-7.41-5.64-8-3.28-.4-5,.11-4.92,4.71.29,10.84-.06,21.7.17,32.55.08,3.85-1,4.8-4.26,4.94-3.57.15-3.59-1.86-3.57-4.81.08-13.26.14-26.52,0-39.79,0-3.42.9-4.89,4-4.65s5.94.15,8.9.41c10.66.92,15.71,9.46,12.53,21.07C127.19,188.64,120.41,190.48,114,183.23Z"/><path class="cls-2" d="M309.7,188c0-8,0-15.93,0-23.89,0-1.48-.85-3.67,1.24-4.23,1.57-.42,2.81.82,3.84,2.07,2.19,2.66,2.61,5.92,2.6,9.4,0,10.61.38,21.26-.17,31.84-.29,5.69,1.88,7.1,6,7.43,2.12.17,4.21.66,6.33.81,4,.28,3.06,3.63,3.1,6.35.06,4.1-2.42,2.16-4,2-2.74-.3-5.46-.83-8.18-1.3-10.82-1.89-10.82-1.89-10.82-14.55Q309.69,195.91,309.7,188Z"/><path class="cls-6" d="M290.8,163c.41,3.53-1.52,4.17-3.9,3.7-4.7-.93-5.2,2.08-5.14,6.27.14,9.63.13,19.26,0,28.89a24.67,24.67,0,0,1-1.07,7,4.2,4.2,0,0,1-5.14,3.14c-2.38-.58-1.37-3.16-1.39-4.85-.09-11.55-.19-23.11,0-34.67.08-4.33-.49-7-5.07-6.23-2.36.41-4.09-.23-3.92-3.78.15-3.15,1.78-3.33,3.84-3.31,6.15.06,12.29.13,18.43.07C289.82,159.22,291.14,160.06,290.8,163Z"/><path class="cls-7" d="M188.17,206c-5-1.46-7-5.33-7.11-10.55-.17-10.61,0-21.23-.13-31.84-.05-3.49,1.12-4.67,4.1-4.56,5.09.18,10.18.09,15.28.05,2.11,0,3.68.21,3.71,3.39s-1.65,3.33-3.69,3.25c-1.27,0-2.55,0-3.82,0-7.55,0-9.65,3.41-7.63,11.73.77,3.16,2.72,2.42,4.5,2.51,2.32.13,4.66.07,7,.18,1.73.09,1.87,1.5,1.87,3s-.24,2.54-1.83,3.14c-3.8,1.41-9.47-3.62-11.38,3-1.27,4.35-.26,9.56-.32,14.38A12.24,12.24,0,0,1,188.17,206Z"/><path class="cls-8" d="M302.17,187.25c0,8,0,15.91,0,23.86,0,2,.68,4.7-2.63,4.17-2.41-.39-5.18.38-5.14-4.27.15-14.46,0-28.92.05-43.38a9.38,9.38,0,0,1,2-5.95,4.24,4.24,0,0,1,4.56-1.83c2.07.6,1.16,2.79,1.18,4.27C302.23,171.83,302.18,179.54,302.17,187.25Z"/><path class="cls-9" d="M152.55,182.78c0,3.86,0,7.72,0,11.58s-2.19,5.68-5.33,5.63-5.05-1.78-5-5.86c.13-7.47,0-15,0-22.44,0-3.79,1.47-5.9,4.92-5.94,3.65,0,5.5,1.89,5.41,6.17C152.48,175.54,152.54,179.16,152.55,182.78Z"/></g></g></svg>