<svg xmlns="http://www.w3.org/2000/svg" viewBox="0 0 201.37 215.58"><defs><style>.cls-1{fill:#63982e;}.cls-2{fill:#566d38;}.cls-3{fill:#8ab162;}.cls-4{fill:#7d8e66;}.cls-5{fill:#add083;}.cls-6{fill:#80bc54;}.cls-7{fill:#536a34;}.cls-8{fill:#63982f;}.cls-9{fill:#64982f;}.cls-10{fill:#649830;}.cls-11{fill:#669932;}.cls-12{fill:#86c05d;}.cls-13{fill:#c0dda9;}.cls-14{fill:#fcfdfc;}.cls-15{fill:#fafbfa;}.cls-16{fill:#fefefe;}.cls-17{fill:#fdfefd;}.cls-18{fill:#fdfdfd;}.cls-19{fill:#fdfdfc;}.cls-20{fill:#576d38;}.cls-21{fill:#eef0ec;}</style></defs><title>Recurso 1logo atanor</title><g id="Capa_2" data-name="Capa 2"><g id="Capa_1-2" data-name="Capa 1"><path class="cls-1" d="M41.76,215.58c-.47-1.23-.17-1.74,1-1.73,1.43,0,3-2.12,2.64-3.59-.65-2.46-1.34-4.92-2-7.38-.1-.38-.65-1,.17-1.11.63-.09,1.54-.46,1.78.75.33,1.68.78,3.33,1.19,5,.08.34.19.69.34,1.23,1-2,2-3.81,2.83-5.7a1.81,1.81,0,0,1,2.56-1.2c-1,1.88-2,3.74-3,5.6-1.08,2-2.15,4.09-3.26,6.11a2.9,2.9,0,0,1-2.35,1.82c-.55.24-1.18-.1-1.73.2Z"/><path class="cls-2" d="M201.37,160.7c-.45.25-.5.77-.8,1.14a3.59,3.59,0,1,1-2.86-5.81,3.43,3.43,0,0,1,3.44,2.72c.26.46-.09,1,.22,1.47Z"/><path class="cls-3" d="M42,215.58c.53-.47,1.15-.16,1.73-.2a.65.65,0,0,1,0,.2Z"/><path class="cls-4" d="M201.37,160.22c-.44-.44-.17-1-.22-1.47l.22,0Z"/><path class="cls-5" d="M154.37,7.81c-1.14.12-1.91.93-2.8,1.49-6,3.86-11.08,8.85-16.09,13.9-7.11,7.18-13,15.3-18.8,23.53a340.55,340.55,0,0,0-24.07,40c-7.17,13.9-13.92,28-19.94,42.44-.57,1.35-1.08,2.73-1.69,4.27a21.79,21.79,0,0,1-3.54-6.57A35.06,35.06,0,0,1,66.1,110.3c2-14.55,7.78-27.7,15.15-40.25a194.08,194.08,0,0,1,17-24.6A144.39,144.39,0,0,1,116.42,27.3a138.83,138.83,0,0,1,27.71-18c2.84-1.44,5.72-2.82,8.65-4.09,1.09-.47,1.65-1,1.38-2.18a2.86,2.86,0,0,1,0-.71c.46,0,.49.41.46.68-.08.78.42.9,1,1A82.44,82.44,0,0,1,167.06.5a17.22,17.22,0,0,1,5.1-.35,2.42,2.42,0,0,1-1.28.5,83.86,83.86,0,0,0-13.37,5.14c-.39.19-.82.35-1,.81A9.49,9.49,0,0,1,154.37,7.81Z"/><path class="cls-6" d="M157.52,69.4a98.59,98.59,0,0,1-22.24,31.32c-5.17,4.86-10.84,9.08-17.63,11.49A28.17,28.17,0,0,1,109.3,114c-.17-.39.12-.49.27-.63,10.06-9.26,17.86-20.27,24.79-31.95,2.08-3.49,4.11-7,5.91-10.67a5.3,5.3,0,0,0,.23-.67c.2-.6.77-.48,1.19-.52A142.77,142.77,0,0,1,156.32,69,1.47,1.47,0,0,1,157.52,69.4Z"/><path class="cls-7" d="M96.8,163.24c-.37,2.6-.75,5.2-1.11,7.79q-1.12,8.06-2.22,16.12c-.11.8-.41,1-1.21,1-1.31-.07-2.63,0-4,0-.72,0-1-.11-.84-.93.88-6.07,1.7-12.16,2.55-18.24.6-4.26,1.23-8.52,1.78-12.79.1-.79.3-1.1,1.14-1.07,2,.06,4,.05,6,0a1.28,1.28,0,0,1,1.34.88q5.64,11.13,11.35,22.25c.17.34.38.67.74,1.29.38-2.66.72-5,1-7.4.74-5.33,1.5-10.66,2.22-16,.1-.76.36-1.09,1.2-1a32.62,32.62,0,0,0,3.83,0c.8,0,1.09.08,1,1-.81,5.44-1.53,10.9-2.29,16.35-.69,4.89-1.4,9.78-2,14.68-.1.78-.37,1-1.12,1-1.84,0-3.67-.06-5.51,0a1.44,1.44,0,0,1-1.53-1q-5.82-11.65-11.71-23.28l-.37-.73Z"/><path class="cls-6" d="M154.37,7.81a3,3,0,0,1,2.15-1.21,123.84,123.84,0,0,1,5.71,27.18,88.41,88.41,0,0,1-2.78,30.07,2.92,2.92,0,0,1-2.4.35,70.75,70.75,0,0,0-12.35.15c-.47,0-1,.14-1.34-.26a143.13,143.13,0,0,0,7.92-26.49A164.81,164.81,0,0,0,154,15.68C154.13,13.06,154.23,10.43,154.37,7.81Z"/><path class="cls-7" d="M138.21,189c-4-.16-8.6-1.54-11.65-6-2.48-3.65-2.82-7.74-2.06-11.95,2.57-14.19,15.79-19,26-15.84,5.83,1.82,9.26,6.93,9.21,13.62C159.58,180.2,150.73,189,138.21,189Z"/><path class="cls-7" d="M187.06,188.15c-2.3,0-4.42,0-6.53,0-.72,0-.8-.51-1-1-1.66-4.05-3.33-8.1-5-12.17a1.11,1.11,0,0,0-1.31-.86c-1.06.09-2.47-.44-3.11.21s-.48,2-.63,3.08c-.46,3.19-.91,6.39-1.31,9.6-.11.89-.44,1.19-1.35,1.13-1.23-.08-2.47,0-3.71,0-.72,0-1,0-.92-1,1-7.22,2-14.45,3-21.68.44-3.16.93-6.31,1.32-9.48.09-.74.36-.9,1-.9,3.79,0,7.58,0,11.38,0a15,15,0,0,1,6.29,1.23,6.59,6.59,0,0,1,4.05,6,10.26,10.26,0,0,1-8.14,11c-.87.21-.75.52-.47,1.13q2.83,6.06,5.63,12.14Z"/><path class="cls-7" d="M51,188.15l8.46-14.72c3.32-5.78,6.65-11.54,9.93-17.33a1.55,1.55,0,0,1,1.68-1c1.33.14,3-.53,3.93.28s.89,2.39,1.26,3.65l8,27.64c.42,1.45.42,1.45-1.07,1.45s-2.88-.05-4.32,0c-.8,0-1.09-.27-1.27-1-.47-1.93-1.07-3.84-1.54-5.77a.89.89,0,0,0-1.06-.8c-4.19,0-8.38,0-12.57,0a1.22,1.22,0,0,0-1.26.83c-1,2-2.12,4-3.17,6-.21.41-.41.75-1,.74C55.15,188.14,53.2,188.15,51,188.15Z"/><path class="cls-7" d="M0,188.14l4.29-7.47q7.07-12.28,14.11-24.59a1.59,1.59,0,0,1,1.68-1c1.31.08,2.91-.38,3.86.22s.9,2.36,1.27,3.61q4,13.81,8.06,27.65c.45,1.54.45,1.54-1.22,1.54-1.43,0-2.87-.05-4.31,0-.66,0-.9-.24-1-.82-.51-2-1.07-3.92-1.56-5.89a1,1,0,0,0-1.13-.88q-6.22.06-12.46,0a1.3,1.3,0,0,0-1.35.87c-1,2-2.09,3.94-3.13,5.92-.2.38-.33.79-.91.79C4.16,188.13,2.17,188.14,0,188.14Z"/><path class="cls-7" d="M143.36,64.09A95,95,0,0,1,155,63.66a36.06,36.06,0,0,0,4.41.19c4.16.43,8.32.85,12.42,1.68,8.58,1.73,17,4,24.75,8.13a5.68,5.68,0,0,1,2,1.49c-13.38-4.38-27.16-5.68-41.12-5.75a130.81,130.81,0,0,0-17,.7c-4.85.43-9.64,1.27-14.43,2.07a121,121,0,0,0-21,5.06.74.74,0,0,1-.77,0,39.29,39.29,0,0,1,7.51-4.62c9.37-4.75,19.4-7.12,29.77-8.25Z"/><path class="cls-7" d="M46.9,155.15c4,0,8.06,0,12.1,0,.91,0,1.07.26.9,1.09a24.54,24.54,0,0,0-.43,3.08c-.07.84-.33,1.22-1.3,1.19-2.63-.09-5.27,0-7.9-.06-.86,0-1.17.22-1.28,1.07q-1.44,10.67-2.94,21.32c-.2,1.5-.47,3-.64,4.5-.07.58-.22.84-.85.82-1.48,0-3,0-4.43,0-.54,0-.77-.08-.68-.75,1.23-8.6,2.4-17.21,3.65-25.81.15-1-.12-1.18-1-1.16-2.67.05-5.35,0-8,0-.75,0-1-.14-.8-.92a25.09,25.09,0,0,0,.51-3.55c.06-.77.4-.87,1.06-.87C38.84,155.16,42.87,155.15,46.9,155.15Z"/><path class="cls-8" d="M186.2,209.24a5.48,5.48,0,0,1-5.83,1.67c-1.71-.59-2.6-2.06-2.49-4.16a5.47,5.47,0,0,1,6.75-5.07,3.93,3.93,0,0,1,2.44,4.92c-.2.48-.53.39-.87.39-1.79,0-3.58,0-5.37,0-.37,0-.89-.22-1.06.27a1.42,1.42,0,0,0,.37,1.32,2.8,2.8,0,0,0,4,.37C185.06,208.17,185.61,208.37,186.2,209.24Z"/><path class="cls-1" d="M119.52,207c-.92,0-1.84.06-2.75,0s-1,.43-.72,1.15c.69,1.58,2.94,2,4.5.67.6-.5.92-.48,1.46,0s.28.63-.05,1a5.74,5.74,0,0,1-5.93.93c-1.56-.81-2.24-2.47-1.89-4.63a5.5,5.5,0,0,1,6.45-4.43,3.91,3.91,0,0,1,2.67,5c-.16.46-.46.35-.75.36Z"/><path class="cls-1" d="M62.88,205.68a5.66,5.66,0,0,1-5.56,5.46,4.12,4.12,0,0,1-4.3-4,5.79,5.79,0,0,1,5.59-5.61A4.11,4.11,0,0,1,62.88,205.68Z"/><path class="cls-1" d="M150.44,209.81a4.7,4.7,0,0,1-3.05,1.34,2.75,2.75,0,0,1-2.94-1.58,3.06,3.06,0,0,1,1.32-3.42,7.36,7.36,0,0,1,3.77-.94c.51,0,1.36.52,1.52-.53a1.62,1.62,0,0,0-1.61-1.72,3.49,3.49,0,0,0-2.36.68c-.66.49-.92,0-1.22-.39s.16-.69.46-.86a5.93,5.93,0,0,1,4.72-.66,2.46,2.46,0,0,1,1.81,2.84c-.24,1.78-.5,3.55-.75,5.32-.08.53,0,1.05-.88,1.08S150.59,210.31,150.44,209.81Z"/><path class="cls-8" d="M96.53,209.8a4.64,4.64,0,0,1-3.61,1.33,2.48,2.48,0,0,1-2.44-1.61,3,3,0,0,1,1-3.12,6.67,6.67,0,0,1,4-1.19c.53,0,1.47.61,1.58-.6A1.62,1.62,0,0,0,95.44,203a3.34,3.34,0,0,0-2.25.65c-.62.46-.93.14-1.24-.33-.43-.64.18-.75.51-.93a5.93,5.93,0,0,1,4.38-.68,2.43,2.43,0,0,1,2.07,2.77c-.21,2-.55,3.95-.79,5.93-.08.7-.55.52-1,.56C96.34,211,96.59,210.39,96.53,209.8Z"/><path class="cls-1" d="M136,202.94a4.75,4.75,0,0,1,3.61-1.43,2.6,2.6,0,0,1,2.58,3.07c-.19,1.9-.51,3.79-.75,5.69-.12,1-.87.62-1.39.63-.8,0-.43-.6-.39-1,.17-1.35.39-2.68.58-4,.22-1.56-.11-2.34-1.13-2.68a2.69,2.69,0,0,0-3,1.54,16.16,16.16,0,0,0-.78,4,6.46,6.46,0,0,0-.18,1.3c.05,1-.65.87-1.27.88-.9,0-.53-.64-.48-1,.3-2.48.67-5,1-7.45.08-.65.42-.76,1-.74S136.51,201.59,136,202.94Z"/><path class="cls-8" d="M71.42,209.85a4.26,4.26,0,0,1-4,1.19,2.27,2.27,0,0,1-2-2.22,38.19,38.19,0,0,1,.78-6.65c.11-.82.91-.4,1.39-.42s.37.45.32.78c-.2,1.54-.4,3.08-.62,4.62a1.77,1.77,0,0,0,.67,2,2.22,2.22,0,0,0,2.28,0A3.18,3.18,0,0,0,72,206.54c.18-1.3.4-2.6.5-3.91.08-1,.75-1,1.43-.9.87.08.42.73.38,1.1-.31,2.42-.72,4.82-1,7.23-.09.9-.58.82-1.19.87C71.25,211,71.47,210.42,71.42,209.85Z"/><path class="cls-8" d="M171.74,208.59c1-2,2-3.8,2.87-5.65a1.79,1.79,0,0,1,2.53-1.09q-2.32,4.4-4.64,8.74c-.22.41-.6.3-.94.34a1.16,1.16,0,0,1-1.5-1.05c-.55-2.36-1.23-4.69-1.82-7-.09-.36-.66-1,.22-1.08.61,0,1.47-.45,1.72.68.38,1.67.82,3.32,1.23,5C171.49,207.73,171.58,208,171.74,208.59Z"/><path class="cls-9" d="M159.59,209.39c.23.11.73-.38.72.17s.12,1.26-.59,1.42a3.48,3.48,0,0,1-3-.3c-.84-.62-.7-1.55-.58-2.42.16-1.31.33-2.62.58-3.91.14-.75.05-1.12-.84-1-.36,0-1.08.34-1-.56.07-.57.12-1.18,1-1,1.11.22,1.36-.39,1.41-1.33,0-.41-.16-1,.55-1.14,1.1-.24,1.46.05,1.2,1.17s0,1.45,1.15,1.33c.37,0,1.13-.43,1.13.52,0,.79-.33,1.21-1.16,1-1.25-.24-1.68.32-1.71,1.53,0,1-.29,2-.4,3C157.9,209.09,158.31,209.5,159.59,209.39Z"/><path class="cls-8" d="M110.52,200.58c-.45,1.11.25,1.21,1.23,1.16.36,0,1-.35,1,.54,0,.65-.11,1.22-1,1-1.31-.25-1.86.26-1.86,1.61,0,1.06-.26,2.13-.36,3.2s.31,1.43,1.34,1.31c.29,0,.86-.47.86.3,0,.47.12,1-.58,1.28-2.25.77-3.77-.36-3.53-2.68.15-1.38.33-2.77.57-4.14.11-.66,0-.94-.72-.9-.42,0-1.1.33-1.07-.63,0-.79.36-1.09,1.1-.95.93.18,1.11-.31,1.22-1.11.06-.45-.23-1.19.59-1.36C110.43,199,110.66,199.25,110.52,200.58Z"/><path class="cls-8" d="M102.25,210.91c-.76.14-.84-.21-.74-.88.63-4.29,1.26-8.58,1.8-12.88.14-1.07.81-.75,1.37-.77.81,0,.46.54.41.92-.58,4.25-1.19,8.5-1.74,12.76C103.25,210.81,102.92,211,102.25,210.91Z"/><path class="cls-9" d="M82.06,203.41c-1.73,0-2.87,1.06-3.13,3-.16,1.26-.39,2.52-.49,3.78-.08,1.1-.85.72-1.4.73-.83,0-.41-.59-.36-1,.33-2.48.69-5,1-7.44.07-.5.16-.92.75-.77.36.09,1.19-.54,1,.63-.08.46.35.21.55,0a4,4,0,0,1,1.93-.86c.4-.08.94-.18,1.07.21a2.87,2.87,0,0,1-.11,1.38C82.77,203.67,82.36,203.46,82.06,203.41Z"/><path class="cls-9" d="M128.46,202.76a5,5,0,0,1,2.69-1.25c.4,0,1.08-.11.88.55-.15.47.39,1.49-.89,1.38A2.76,2.76,0,0,0,128,206c-.22,1.33-.46,2.67-.56,4-.07,1-.65.9-1.31.88-.86,0-.53-.66-.48-1.05.31-2.45.69-4.89,1-7.34.11-1,.76-.81,1.38-.82C128.83,201.7,128.36,202.28,128.46,202.76Z"/><path class="cls-10" d="M165.66,202.52c-.34,2.57-.7,5.13-1,7.7-.12.95-.81.68-1.36.7s-.51-.49-.46-.85c.35-2.57.74-5.13,1.07-7.7.12-.92.75-.6,1.25-.65S165.7,202.11,165.66,202.52Z"/><path class="cls-11" d="M165.37,199.77c-.83,0-1.3-.34-1.33-1a1.35,1.35,0,0,1,1.36-1.49,1,1,0,0,1,1.21,1A1.38,1.38,0,0,1,165.37,199.77Z"/><path class="cls-12" d="M155.64,3.93c-1.19.56-1.19.56-1.25-.77,0-.31.06-.64-.2-.89,0-.47-.06-.94-.08-1.41-.06-.23-.19-.49.24-.46Z"/><path class="cls-13" d="M154.35.4l-.24.46C153.9.59,153.78.25,154,0S154.31.21,154.35.4Z"/><path class="cls-14" d="M199.45,161.88a2.82,2.82,0,1,1-3.15-4.66.53.53,0,0,1,.23.26c.3,1.13,0,2.3.23,3.49.66-1.39.83-1.43,1.7-.26a3.62,3.62,0,0,0,1,.85A.23.23,0,0,1,199.45,161.88Z"/><path class="cls-15" d="M196.34,157.59l0-.37a2.84,2.84,0,0,1,3.9.78,2.79,2.79,0,0,1-.75,3.88v-.23c-.8-.7-1.37-1.37-.54-2.49.42-.58,0-1.12-.87-1.25C197.47,157.82,196.84,158,196.34,157.59Z"/><path class="cls-16" d="M143.52,159.65c5.51-.14,9.48,3.43,9.84,9.09.33,5.2-2.34,11.71-8.84,14.12a11.76,11.76,0,0,1-6.82.5c-4.25-1-6.81-4-7.18-8.87a13.7,13.7,0,0,1,9.58-14.36A14.69,14.69,0,0,1,143.52,159.65Z"/><path class="cls-16" d="M174.24,169.09c-1,0-1.91,0-2.87,0-.49,0-.71-.08-.62-.65.38-2.48.72-5,1.08-7.45,0-.37,0-.81.61-.78a61.38,61.38,0,0,1,6.92.18c2.27.36,3.32,1.18,3.6,2.75a4.73,4.73,0,0,1-2.4,5,7.81,7.81,0,0,1-3.45.85c-1,.06-1.91,0-2.87,0Z"/><path class="cls-16" d="M71.44,162.41c.9,3.82,1.79,7.56,2.67,11.3.42,1.81.41,1.81-1.5,1.81h-8C64.86,174.56,70.44,163.86,71.44,162.41Z"/><path class="cls-16" d="M20.39,162.25c1,4.4,2,8.51,3,12.61.15.64-.12.66-.59.66-2.88,0-5.75,0-8.63,0-.58,0-.7-.13-.41-.66C15.92,170.75,18.09,166.63,20.39,162.25Z"/><path class="cls-17" d="M182.64,205.55c-.52,0-1,0-1.55,0-.34,0-.81.18-1-.15s.16-.83.43-1.15a3.23,3.23,0,0,1,3.3-1.17,1.79,1.79,0,0,1,1.43,1.43c.18.68.08,1.16-.83,1.06A17.78,17.78,0,0,0,182.64,205.55Z"/><path class="cls-18" d="M116.12,205.56a3.28,3.28,0,0,1,3.69-2.52,1.88,1.88,0,0,1,1.23.64,1.72,1.72,0,0,1,.44,1.55c-.19.61-.81.3-1.23.31C118.91,205.58,117.56,205.56,116.12,205.56Z"/><path class="cls-16" d="M61,205.75a3.54,3.54,0,0,1-3.41,3.72A2.43,2.43,0,0,1,55,206.84a3.64,3.64,0,0,1,3.49-3.68A2.42,2.42,0,0,1,61,205.75Z"/><path class="cls-19" d="M147.84,209.73c-.62-.08-1.41-.06-1.6-1A1.48,1.48,0,0,1,147.3,207a8.7,8.7,0,0,1,3-.48c.57,0,.51.34.47.71A3,3,0,0,1,147.84,209.73Z"/><path class="cls-14" d="M93.76,209.72c-.63,0-1.37-.16-1.53-1A1.51,1.51,0,0,1,93.29,207a8.94,8.94,0,0,1,3-.5c.63,0,.58.36.51.78A3,3,0,0,1,93.76,209.72Z"/><path class="cls-20" d="M196.34,157.59a15.13,15.13,0,0,1,2,0c.89.11,1.46,1.2.85,1.76-.88.79-.27,1.26.06,1.86.07.14.12.29.18.44-.92.22-1.1-.54-1.45-1.08-.14-.21-.2-.59-.55-.53s-.21.44-.26.68.22,1-.53.91-.3-.63-.31-1C196.31,159.65,196.34,158.62,196.34,157.59Z"/><path class="cls-21" d="M198.54,158.77c0,.49-.41.51-.78.53s-.61-.08-.61-.51.21-.56.6-.53S198.49,158.27,198.54,158.77Z"/></g></g></svg>