<?xml version="1.0" encoding="utf-8"?>
<!-- Generator: Adobe Illustrator 24.1.2, SVG Export Plug-In . SVG Version: 6.00 Build 0)  -->
<svg version="1.1" id="Layer_1" xmlns="http://www.w3.org/2000/svg" xmlns:xlink="http://www.w3.org/1999/xlink" x="0px" y="0px"
	 viewBox="0 0 1196.6 1196.6" style="enable-background:new 0 0 1196.6 1196.6;" xml:space="preserve">
<style type="text/css">
	.st0{fill:#FFFFFF;stroke:#231F20;stroke-miterlimit:10;}
	.st1{fill:#0047BA;}
</style>
<rect x="83.2" y="157.9" class="st0" width="982.3" height="837.2"/>
<g>
	<path class="st1" d="M249.3,752.1c-0.9-0.9-2.1-1.3-3.5-1.3c-1.4,0-2.6,0.4-3.5,1.3c-0.9,0.9-1.4,2.2-1.5,4.1
		c-0.1,3.7-0.1,7.5,0,11.3c0.1,1.9,0.6,3.3,1.4,4.1c0.9,0.9,2,1.3,3.5,1.3c1.5,0,2.7-0.4,3.5-1.3c0.9-0.9,1.4-2.2,1.4-4.1
		c0.1-3.8,0.1-7.6,0-11.3C250.7,754.3,250.2,753,249.3,752.1z"/>
	<path class="st1" d="M590.3,750.8h-4.9v7.1h4.9c1,0,1.8-0.4,2.3-1c0.5-0.7,0.8-1.5,0.8-2.4c0-0.9-0.2-1.7-0.7-2.5
		C592.2,751.3,591.4,750.8,590.3,750.8z"/>
	<path class="st1" d="M859,541.8c-1.4-3.7-2.7-6.8-2.8-6.8c-0.2,0-1.5,3-2.9,6.8l-19.2,52.1h44L859,541.8z"/>
	<path class="st1" d="M401.1,750.8h-4.9v7.1h4.9c1,0,1.8-0.4,2.3-1c0.5-0.7,0.8-1.5,0.8-2.4c0-0.9-0.2-1.7-0.7-2.5
		C403,751.3,402.3,750.8,401.1,750.8z"/>
	<path class="st1" d="M720.4,752.1c-0.9-0.9-2.1-1.3-3.5-1.3c-1.4,0-2.6,0.4-3.5,1.3c-0.9,0.9-1.4,2.2-1.5,4.1
		c-0.1,3.7-0.1,7.5,0,11.3c0.1,1.9,0.6,3.3,1.4,4.1c0.9,0.9,2.1,1.3,3.5,1.3c1.5,0,2.7-0.4,3.5-1.3c0.9-0.9,1.3-2.2,1.4-4.1
		c0.1-3.8,0.1-7.6,0-11.3C721.8,754.3,721.3,753,720.4,752.1z"/>
	<path class="st1" d="M0,0v1196.6h1196.6V0H0z M172.6,542.6c0.4-0.4,0.9-0.8,1.4-1.2c6.5-5.4,36.8-27.3,97.8-27.3v9.6
		c-59.6,4.9-88.7,37-99.2,50.5V542.6z M172.6,619.4c19.7-58.7,84-80.6,99.2-83.6v62.6h29.3c32.3,0,45.3-17.4,45.3-48.9
		c0-31.5-13-48.9-45.3-48.9h-14.3h-14.6c-0.1,0-0.2,0-0.4,0v0h-7.5c0,0-56.1-2.1-91.7,11.2v-93.7c0-3.9,3.9-7.7,7.9-7.7h6.5h58h84.4
		c78.6,0,120.1,37.5,120.1,139.8c0,97.6-41.2,139.8-118.2,139.8h-86.3h-58h-6.5c-3.9,0-7.9-4.6-7.9-8.5V619.4z M190.6,767.3
		c0.1,2,0.6,3.5,1.5,4.4c0.9,0.9,2.2,1.3,3.9,1.3c1.7,0,3.1-0.4,4.1-1.1c1-0.7,1.6-2,1.6-3.7h-3.2c-0.5,0-0.9-0.2-1.3-0.5
		c-0.4-0.4-0.5-0.8-0.5-1.3v-7.5c0-0.5,0.2-0.9,0.5-1.3c0.4-0.4,0.8-0.5,1.3-0.5h18.5c0.5,0,0.9,0.2,1.3,0.5
		c0.4,0.4,0.5,0.8,0.5,1.3v8.7c0,3-0.6,5.7-1.7,8c-1.1,2.3-2.7,4.2-4.8,5.8c-2,1.6-4.5,2.7-7.3,3.5c-2.8,0.8-5.9,1.2-9.3,1.2
		c-3.4,0-6.5-0.4-9.2-1.2c-2.7-0.8-5.1-1.9-7-3.4c-1.9-1.5-3.5-3.4-4.6-5.7c-1.1-2.3-1.7-5-1.8-8.2c-0.1-1.8-0.1-3.8-0.1-6
		c0-2.2,0-4.2,0.1-6.1c0.1-3,0.8-5.6,1.9-7.8c1.1-2.2,2.7-4.1,4.6-5.6c2-1.5,4.3-2.6,7.1-3.3c2.7-0.7,5.8-1.1,9.1-1.1
		c3.5,0,6.7,0.4,9.6,1.2c2.8,0.8,5.3,1.9,7.2,3.3c2,1.4,3.5,2.9,4.6,4.8c1.1,1.8,1.7,3.7,1.7,5.8c0,0.4-0.1,0.7-0.4,1
		c-0.3,0.3-0.6,0.4-1,0.4h-14.9c-0.9,0-1.5-0.2-1.9-0.7c-0.1-0.2-0.3-0.4-0.5-0.7c-0.2-0.3-0.5-0.6-0.9-0.9
		c-0.4-0.3-0.9-0.5-1.4-0.7c-0.6-0.2-1.2-0.3-2.1-0.3c-3.3,0-5,1.7-5.2,5C190.4,759.5,190.4,763.4,190.6,767.3z M268.2,767.9
		c-0.1,3-0.8,5.6-1.9,7.9c-1.1,2.3-2.7,4.2-4.6,5.7c-2,1.5-4.3,2.7-7,3.4c-2.7,0.8-5.7,1.2-9,1.2c-3.3,0-6.3-0.4-9-1.2
		c-2.7-0.8-5-1.9-7-3.4c-1.9-1.5-3.5-3.4-4.6-5.7c-1.1-2.3-1.7-4.9-1.9-7.9c-0.1-1.8-0.1-3.8-0.1-5.8c0-2.1,0-4,0.1-6
		c0.1-3,0.8-5.6,1.9-7.9c1.1-2.3,2.7-4.2,4.6-5.8c2-1.6,4.3-2.8,7-3.6c2.7-0.8,5.7-1.2,9-1.2c3.3,0,6.3,0.4,9,1.2c2.7,0.8,5,2,7,3.6
		c1.9,1.6,3.5,3.5,4.6,5.8c1.1,2.3,1.7,4.9,1.9,7.9c0.1,1.9,0.1,3.9,0.1,6C268.4,764.2,268.3,766.1,268.2,767.9z M324.4,750.4
		c0,0.5-0.2,0.9-0.5,1.3c-0.4,0.4-0.8,0.5-1.3,0.5h-19.2v5h17.9c0.5,0,0.9,0.2,1.3,0.5c0.4,0.4,0.5,0.8,0.5,1.3v10.2
		c0,0.5-0.2,0.9-0.5,1.3c-0.4,0.4-0.8,0.5-1.3,0.5h-17.9v12.6c0,0.5-0.2,0.9-0.5,1.3c-0.4,0.4-0.8,0.5-1.3,0.5h-12.8
		c-0.5,0-0.9-0.2-1.3-0.5c-0.4-0.4-0.5-0.8-0.5-1.3v-43.4c0-0.5,0.2-0.9,0.5-1.3c0.4-0.4,0.8-0.5,1.3-0.5h33.9
		c0.5,0,0.9,0.2,1.3,0.5c0.4,0.4,0.5,0.8,0.5,1.3V750.4z M372.8,767.7c0,3.2-0.5,5.9-1.6,8.2c-1.1,2.3-2.6,4.2-4.5,5.8
		c-1.9,1.5-4.2,2.6-6.9,3.4c-2.7,0.7-5.6,1.1-8.8,1.1c-3.2,0-6.2-0.4-8.9-1.1c-2.7-0.7-5-1.8-6.9-3.4c-1.9-1.5-3.4-3.4-4.5-5.8
		c-1.1-2.3-1.6-5-1.6-8.2v-27.5c0-0.5,0.2-0.9,0.5-1.3c0.4-0.4,0.8-0.5,1.3-0.5h13.2c0.5,0,0.9,0.2,1.3,0.5c0.4,0.4,0.5,0.8,0.5,1.3
		v27.2c0,3.4,1.7,5.2,5,5.2c3.3,0,5-1.7,5-5.2v-27.2c0-0.5,0.2-0.9,0.5-1.3c0.4-0.4,0.8-0.5,1.3-0.5H371c0.5,0,0.9,0.2,1.3,0.5
		c0.4,0.4,0.5,0.8,0.5,1.3V767.7z M422.5,785c-0.3,0.3-0.6,0.4-1,0.4h-13.8c-0.9,0-1.6-0.2-2-0.7c-0.5-0.4-0.7-0.8-0.9-1.1
		l-5.8-12.9h-2.8v12.9c0,0.5-0.2,0.9-0.5,1.3c-0.4,0.4-0.8,0.5-1.3,0.5h-13.2c-0.5,0-0.9-0.2-1.3-0.5c-0.4-0.4-0.5-0.8-0.5-1.3
		v-43.4c0-0.5,0.2-0.9,0.5-1.3c0.4-0.4,0.8-0.5,1.3-0.5h19.9c3.2,0,6.1,0.4,8.7,1.1c2.5,0.7,4.7,1.8,6.5,3.2c1.7,1.4,3.1,3.1,4,5.1
		c0.9,2,1.4,4.3,1.4,6.9c0,3-0.7,5.7-2,7.9c-1.4,2.2-3.1,4-5.2,5.3l8.3,15.3c0.1,0.3,0.2,0.5,0.2,0.7
		C422.9,784.3,422.8,784.7,422.5,785z M468.3,751c0,0.5-0.2,0.9-0.5,1.3c-0.4,0.4-0.8,0.5-1.3,0.5h-11.2v30.8c0,0.5-0.2,0.9-0.5,1.3
		c-0.4,0.4-0.8,0.5-1.3,0.5h-13.4c-0.5,0-0.9-0.2-1.3-0.5c-0.4-0.4-0.5-0.8-0.5-1.3v-30.8h-11.2c-0.5,0-0.9-0.2-1.3-0.5
		c-0.4-0.4-0.5-0.8-0.5-1.3v-10.8c0-0.5,0.2-0.9,0.5-1.3c0.4-0.4,0.8-0.5,1.3-0.5h39.4c0.5,0,0.9,0.2,1.3,0.5
		c0.4,0.4,0.5,0.8,0.5,1.3V751z M517,783.6c0,0.5-0.2,0.9-0.5,1.3c-0.4,0.4-0.8,0.5-1.3,0.5H502c-0.5,0-0.9-0.2-1.3-0.5
		c-0.4-0.4-0.5-0.8-0.5-1.3v-14.5h-10.9v14.5c0,0.5-0.2,0.9-0.5,1.3c-0.4,0.4-0.8,0.5-1.3,0.5h-13.2c-0.5,0-0.9-0.2-1.3-0.5
		c-0.4-0.3-0.5-0.8-0.5-1.3v-43.4c0-0.5,0.2-0.9,0.5-1.3c0.4-0.4,0.8-0.5,1.3-0.5h13.2c0.5,0,0.9,0.2,1.3,0.5
		c0.4,0.4,0.5,0.8,0.5,1.3v14.1h10.9v-14.1c0-0.5,0.2-0.9,0.5-1.3c0.3-0.4,0.8-0.5,1.3-0.5h13.2c0.5,0,0.9,0.2,1.3,0.5
		c0.4,0.4,0.5,0.8,0.5,1.3V783.6z M562.6,783.6c0,0.5-0.2,0.9-0.5,1.3c-0.4,0.4-0.8,0.5-1.3,0.5h-35c-0.5,0-0.9-0.2-1.3-0.5
		c-0.4-0.4-0.5-0.8-0.5-1.3v-43.4c0-0.5,0.2-0.9,0.5-1.3c0.4-0.4,0.8-0.5,1.3-0.5h34.5c0.5,0,0.9,0.2,1.3,0.5
		c0.4,0.4,0.5,0.8,0.5,1.3v9.5c0,0.5-0.2,0.9-0.5,1.3c-0.4,0.4-0.8,0.5-1.3,0.5h-20.2v4.2h18.7c0.5,0,0.9,0.2,1.3,0.5
		c0.4,0.4,0.5,0.8,0.5,1.3v8.7c0,0.5-0.2,0.9-0.5,1.3c-0.4,0.4-0.8,0.5-1.3,0.5h-18.7v4.2h20.7c0.5,0,0.9,0.2,1.3,0.5
		c0.4,0.4,0.5,0.8,0.5,1.3V783.6z M611.6,785c-0.3,0.3-0.6,0.4-1,0.4h-13.8c-0.9,0-1.6-0.2-2-0.7c-0.5-0.4-0.7-0.8-0.9-1.1
		l-5.8-12.9h-2.8v12.9c0,0.5-0.2,0.9-0.5,1.3c-0.4,0.4-0.8,0.5-1.3,0.5h-13.2c-0.5,0-0.9-0.2-1.3-0.5c-0.4-0.4-0.5-0.8-0.5-1.3
		v-43.4c0-0.5,0.2-0.9,0.5-1.3c0.3-0.4,0.8-0.5,1.3-0.5h19.9c3.2,0,6.1,0.4,8.7,1.1c2.6,0.7,4.7,1.8,6.5,3.2c1.8,1.4,3.1,3.1,4,5.1
		c0.9,2,1.4,4.3,1.4,6.9c0,3-0.7,5.7-2,7.9c-1.3,2.2-3.1,4-5.2,5.3l8.3,15.3c0.1,0.3,0.2,0.5,0.2,0.7
		C612.1,784.3,611.9,784.7,611.6,785z M631.5,783.6c0,0.5-0.2,0.9-0.5,1.3c-0.4,0.4-0.8,0.5-1.3,0.5H618c-0.5,0-0.9-0.2-1.3-0.5
		c-0.4-0.4-0.5-0.8-0.5-1.3v-11.7c0-0.5,0.2-0.9,0.5-1.3c0.4-0.4,0.8-0.5,1.3-0.5h11.7c0.5,0,0.9,0.2,1.3,0.5
		c0.4,0.4,0.5,0.8,0.5,1.3V783.6z M552.5,690.1c-4,0-8.5-3.8-10-7.5L432.9,417.5c-1.5-3.7,0.5-6.9,4.4-6.9h97.1c4,0,8.3,3.3,9.7,7
		L595.7,558c1.4,3.7,2.7,6.7,2.9,6.7c0.2,0,1.5-3.1,2.8-6.8l51.5-140.3c1.4-3.7,5.7-7,9.7-7h97.1c4,0,6,3.6,4.4,7.3L654.6,682.8
		c-1.5,3.7-6,7.4-10,7.4H552.5z M691,751c0,0.5-0.2,0.9-0.5,1.3c-0.4,0.4-0.8,0.5-1.3,0.5h-11.1v30.8c0,0.5-0.2,0.9-0.5,1.3
		c-0.4,0.4-0.8,0.5-1.3,0.5h-13.5c-0.5,0-0.9-0.2-1.3-0.5c-0.4-0.4-0.5-0.8-0.5-1.3v-30.8h-11.2c-0.5,0-0.9-0.2-1.3-0.5
		c-0.4-0.4-0.5-0.8-0.5-1.3v-10.8c0-0.5,0.2-0.9,0.5-1.3c0.4-0.4,0.8-0.5,1.3-0.5h39.4c0.5,0,0.9,0.2,1.3,0.5
		c0.4,0.4,0.5,0.8,0.5,1.3V751z M739.3,767.9c-0.1,3-0.8,5.6-1.9,7.9c-1.1,2.3-2.7,4.2-4.6,5.7c-2,1.5-4.3,2.7-7,3.4
		c-2.7,0.8-5.7,1.2-9,1.2c-3.3,0-6.3-0.4-9-1.2c-2.7-0.8-5-1.9-7-3.4c-2-1.5-3.5-3.4-4.6-5.7c-1.1-2.3-1.8-4.9-1.9-7.9
		c-0.1-1.8-0.1-3.8-0.1-5.8c0-2.1,0-4,0.1-6c0.1-3,0.8-5.6,1.9-7.9c1.1-2.3,2.6-4.2,4.6-5.8c1.9-1.6,4.3-2.8,7-3.6
		c2.7-0.8,5.7-1.2,9-1.2c3.3,0,6.3,0.4,9,1.2c2.7,0.8,5,2,7,3.6c1.9,1.6,3.5,3.5,4.6,5.8c1.1,2.3,1.7,4.9,1.9,7.9
		c0.1,1.9,0.1,3.9,0.1,6C739.5,764.2,739.4,766.1,739.3,767.9z M761.3,767.3c0.1,2,0.6,3.5,1.5,4.4c0.9,0.9,2.2,1.3,3.9,1.3
		c1.7,0,3.1-0.4,4.1-1.1c1.1-0.7,1.6-2,1.6-3.7h-3.2c-0.5,0-0.9-0.2-1.3-0.5c-0.4-0.4-0.5-0.8-0.5-1.3v-7.5c0-0.5,0.2-0.9,0.5-1.3
		c0.4-0.4,0.8-0.5,1.3-0.5h18.5c0.5,0,0.9,0.2,1.3,0.5c0.4,0.4,0.5,0.8,0.5,1.3v8.7c0,3-0.6,5.7-1.7,8c-1.1,2.3-2.7,4.2-4.8,5.8
		c-2,1.6-4.5,2.7-7.3,3.5c-2.8,0.8-5.9,1.2-9.3,1.2c-3.4,0-6.5-0.4-9.2-1.2c-2.7-0.8-5.1-1.9-7-3.4c-1.9-1.5-3.5-3.4-4.6-5.7
		c-1.1-2.3-1.7-5-1.9-8.2c-0.1-1.8-0.1-3.8-0.1-6c0-2.2,0-4.2,0.1-6.1c0.1-3,0.8-5.6,1.9-7.8c1.1-2.2,2.7-4.1,4.6-5.6
		c2-1.5,4.3-2.6,7.1-3.3c2.7-0.7,5.7-1.1,9.1-1.1c3.5,0,6.7,0.4,9.6,1.2c2.8,0.8,5.3,1.9,7.2,3.3c2,1.4,3.5,2.9,4.6,4.8
		c1.1,1.8,1.7,3.7,1.7,5.8c0,0.4-0.1,0.7-0.4,1c-0.3,0.3-0.6,0.4-1,0.4h-14.9c-0.9,0-1.5-0.2-2-0.7c-0.1-0.2-0.3-0.4-0.5-0.7
		c-0.2-0.3-0.5-0.6-0.9-0.9c-0.4-0.3-0.8-0.5-1.4-0.7c-0.6-0.2-1.2-0.3-2-0.3c-3.3,0-5,1.7-5.2,5
		C761.2,759.5,761.2,763.4,761.3,767.3z M694.9,690.1c-4,0-6-3.8-4.5-7.5l109.6-265.2c1.5-3.7,6-6.9,10-6.9h92.1c4,0,8.5,3.6,10,7.3
		l109.6,264.9c1.5,3.7-0.5,7.4-4.4,7.4h-97.1c-4,0-8.3-3.8-9.7-7.5l-4.1-12H805.9l-4.2,12c-1.4,3.7-5.7,7.5-9.7,7.5H694.9z
		 M833.9,783.6c0,0.5-0.2,0.9-0.5,1.3c-0.4,0.4-0.8,0.5-1.3,0.5h-35c-0.5,0-0.9-0.2-1.3-0.5c-0.4-0.4-0.5-0.8-0.5-1.3v-43.4
		c0-0.5,0.2-0.9,0.5-1.3c0.4-0.4,0.8-0.5,1.3-0.5h34.5c0.5,0,0.9,0.2,1.3,0.5c0.3,0.4,0.5,0.8,0.5,1.3v9.5c0,0.5-0.2,0.9-0.5,1.3
		c-0.4,0.4-0.8,0.5-1.3,0.5h-20.2v4.2h18.7c0.5,0,0.9,0.2,1.3,0.5c0.4,0.4,0.5,0.8,0.5,1.3v8.7c0,0.5-0.2,0.9-0.5,1.3
		c-0.4,0.4-0.8,0.5-1.3,0.5h-18.7v4.2h20.7c0.5,0,0.9,0.2,1.3,0.5c0.4,0.4,0.5,0.8,0.5,1.3V783.6z M880.3,751c0,0.5-0.2,0.9-0.5,1.3
		c-0.4,0.4-0.8,0.5-1.3,0.5h-11.2v30.8c0,0.5-0.2,0.9-0.5,1.3c-0.4,0.4-0.8,0.5-1.3,0.5h-13.4c-0.5,0-0.9-0.2-1.3-0.5
		c-0.4-0.4-0.5-0.8-0.5-1.3v-30.8h-11.2c-0.5,0-0.9-0.2-1.3-0.5c-0.4-0.4-0.5-0.8-0.5-1.3v-10.8c0-0.5,0.2-0.9,0.5-1.3
		c0.4-0.4,0.8-0.5,1.3-0.5h39.4c0.5,0,0.9,0.2,1.3,0.5c0.4,0.4,0.5,0.8,0.5,1.3V751z M929,783.6c0,0.5-0.2,0.9-0.5,1.3
		c-0.4,0.4-0.8,0.5-1.3,0.5H914c-0.5,0-0.9-0.2-1.3-0.5c-0.4-0.4-0.5-0.8-0.5-1.3v-14.5h-10.9v14.5c0,0.5-0.2,0.9-0.5,1.3
		c-0.4,0.4-0.8,0.5-1.3,0.5h-13.2c-0.5,0-0.9-0.2-1.3-0.5c-0.4-0.3-0.5-0.8-0.5-1.3v-43.4c0-0.5,0.2-0.9,0.5-1.3
		c0.4-0.4,0.8-0.5,1.3-0.5h13.2c0.5,0,0.9,0.2,1.3,0.5c0.4,0.4,0.5,0.8,0.5,1.3v14.1h10.9v-14.1c0-0.5,0.2-0.9,0.5-1.3
		c0.4-0.4,0.8-0.5,1.3-0.5h13.2c0.5,0,0.9,0.2,1.3,0.5c0.4,0.4,0.5,0.8,0.5,1.3V783.6z M974.6,783.6c0,0.5-0.2,0.9-0.5,1.3
		c-0.4,0.4-0.8,0.5-1.3,0.5h-35c-0.5,0-0.9-0.2-1.3-0.5c-0.4-0.4-0.5-0.8-0.5-1.3v-43.4c0-0.5,0.2-0.9,0.5-1.3
		c0.4-0.4,0.8-0.5,1.3-0.5h34.5c0.5,0,0.9,0.2,1.3,0.5c0.3,0.4,0.5,0.8,0.5,1.3v9.5c0,0.5-0.2,0.9-0.5,1.3c-0.4,0.4-0.8,0.5-1.3,0.5
		h-20.2v4.2h18.7c0.5,0,0.9,0.2,1.3,0.5c0.4,0.4,0.5,0.8,0.5,1.3v8.7c0,0.5-0.2,0.9-0.5,1.3c-0.4,0.4-0.8,0.5-1.3,0.5h-18.7v4.2
		h20.7c0.5,0,0.9,0.2,1.3,0.5c0.4,0.4,0.5,0.8,0.5,1.3V783.6z M1023.6,785c-0.3,0.3-0.6,0.4-1,0.4h-13.8c-0.9,0-1.6-0.2-2-0.7
		c-0.5-0.4-0.7-0.8-0.9-1.1l-5.8-12.9h-2.8v12.9c0,0.5-0.2,0.9-0.5,1.3c-0.4,0.4-0.8,0.5-1.3,0.5h-13.2c-0.5,0-0.9-0.2-1.3-0.5
		c-0.4-0.4-0.5-0.8-0.5-1.3v-43.4c0-0.5,0.2-0.9,0.5-1.3c0.4-0.4,0.8-0.5,1.3-0.5h19.9c3.2,0,6.1,0.4,8.7,1.1
		c2.6,0.7,4.7,1.8,6.5,3.2c1.8,1.4,3.1,3.1,4,5.1c0.9,2,1.4,4.3,1.4,6.9c0,3-0.7,5.7-2,7.9c-1.3,2.2-3.1,4-5.2,5.3l8.3,15.3
		c0.1,0.3,0.2,0.5,0.2,0.7C1024.1,784.3,1023.9,784.7,1023.6,785z"/>
	<path class="st1" d="M1002.3,750.8h-4.9v7.1h4.9c1,0,1.8-0.4,2.3-1c0.5-0.7,0.8-1.5,0.8-2.4c0-0.9-0.2-1.7-0.7-2.5
		C1004.2,751.3,1003.4,750.8,1002.3,750.8z"/>
</g>
</svg>
