<?xml version="1.0" encoding="utf-8"?>
<!-- Generator: Adobe Illustrator 24.0.2, SVG Export Plug-In . SVG Version: 6.00 Build 0)  -->
<svg version="1.1" id="Capa_1" xmlns="http://www.w3.org/2000/svg" xmlns:xlink="http://www.w3.org/1999/xlink" x="0px" y="0px"
	 viewBox="0 0 120.4 123.7" style="enable-background:new 0 0 120.4 123.7;" xml:space="preserve">
<style type="text/css">
	.st0{fill:#00471A;}
	.st1{fill:#FE6600;}
</style>
<title>Recurso 2brand CampoFertil</title>
<path class="st0" d="M31,104.9c18.2-8,26.6-25.9,35.3-43.3c4.3-8.6,8.3-17.4,13.6-25.3c5.5-8.1,12.2-13.9,21.8-15.1
	c-2,4.3-3.7,8-6.3,13.7c9-4.6,15.2-12.7,25-11.9c-2.9,2.8-5.7,5.1-8.1,7.9c-4.1,4.7-5.7,9.6-1.9,16.1c5.9,10,5.6,20.4-0.3,30.5
	c-9.8,16.7-22.5,30.2-36.9,41.6c-7.6,6-16,5.8-24.1,0.9C42.6,116.2,36.9,111.1,31,104.9z"/>
<path class="st1" d="M18.1,102.4c2.2-5.2,5.3-8.9,5.2-15.2C16.4,94.4,9.7,100.6,0,100.7c1.1-2.8,3.2-3.6,4.8-5
	c7.5-6.8,8.1-10.9,3.7-20.8c-4.2-9.3-4.3-18.4,0.8-27.5C19,30,32,16.3,46.8,4.6c7.4-5.9,15.6-5.8,23.6-1.2
	c6.7,3.8,12.4,9.2,18.6,15.4c-15.9,7.1-24.5,21.6-32.3,37c-5.4,10.7-10.2,21.7-16.8,31.6C34.6,95.2,28.1,100.9,18.1,102.4z"/>
</svg>
