<svg xmlns="http://www.w3.org/2000/svg" viewBox="0 0 154.75 97.83"><defs><style>.cls-1,.cls-2{fill:#fff;}.cls-1{fill-rule:evenodd;}</style></defs><title>Recurso 3Brand blanco</title><g id="Capa_2" data-name="Capa 2"><g id="Capa_1-2" data-name="Capa 1"><path class="cls-1" d="M93.78,14.44a10.26,10.26,0,0,1,2.91-7A11.05,11.05,0,0,0,90,10.09c-4.27,3.72-7.59,11.37-10.56,16.15A35.89,35.89,0,0,1,75.2,32c-.61.65-.93.9-1.53,1.45l-.18.2a3.1,3.1,0,0,0-.85.68,12,12,0,0,0-1.28.83c-.27.13-1.34.72-1.57.89l-1.72.72a.86.86,0,0,0,.44.43,9.67,9.67,0,0,0,1.29,1.15,35,35,0,0,0,4.32,3.08,2.44,2.44,0,0,0,.87.51,4.35,4.35,0,0,0,1.37.65,5.32,5.32,0,0,0,1.38.45l.73.15c2.12.64,5.13-.49,6.5-1.42a67.26,67.26,0,0,0,9-7.66c2.11-2.12,6-6.59,7-9.58a9.37,9.37,0,0,0-1.29-8.21A4.76,4.76,0,0,1,98.9,15a3.76,3.76,0,0,1,.78-3.21A16.25,16.25,0,0,1,104.23,8c-4.61-.44-10.16,3.91-10.45,6.45"/><path class="cls-1" d="M65.44,28.92a10.2,10.2,0,0,1-2.9,7,11.09,11.09,0,0,0,6.65-2.7c4.27-3.72,7.6-11.36,10.57-16.15A35.22,35.22,0,0,1,84,11.38a20.3,20.3,0,0,1,1.53-1.45l.18-.2A3.09,3.09,0,0,0,86.59,9a9.81,9.81,0,0,0,1.27-.83,16.82,16.82,0,0,0,1.57-.88l1.73-.73a.86.86,0,0,0-.45-.42A7.6,7.6,0,0,0,89.42,5,33.25,33.25,0,0,0,85.11,2a2.18,2.18,0,0,0-.87-.51A4.3,4.3,0,0,0,82.86.79,4.76,4.76,0,0,0,81.48.34L80.76.19c-2.13-.64-5.13.49-6.5,1.42a66.57,66.57,0,0,0-9,7.65c-2.11,2.12-6,6.6-7,9.59a9.31,9.31,0,0,0,1.29,8.21,4.85,4.85,0,0,1,.77,1.33,3.81,3.81,0,0,1-.78,3.22A16.25,16.25,0,0,1,55,35.38c4.6.43,10.16-3.91,10.44-6.46"/><path class="cls-1" d="M36.94,70.22c-.44-.43-4.12-9.63-4.63-10.94H28.87l0,21.57c2.63,0,3.41-2.65,3.59-4.75.16-1.68-.12-7.33.12-8.06l.07-.14c.42,1.52,2.82,6.87,3.37,8.59l1.82-.1,2.64-6.68a22.25,22.25,0,0,1,.94-2.21l0,12.3L45,79.6l0-20.32H41.58Z"/><path class="cls-1" d="M110.23,79.51l3.59.24V62.06a12.07,12.07,0,0,1,3.43.22c2.13.71,1.57,4.66.89,5.51s-1.93.61-3.15.67a13.79,13.79,0,0,0,.64,1.79c.23.64.46,1.23.69,1.84.47,1.26.9,2.47,1.37,3.72,1,2.5,2,4.92,5.39,4.64l-3.83-9.79c1.21-.84,2.49-1.06,3-3.71a7.87,7.87,0,0,0-.9-5.43c-.9-1.33-2.31-2-4.42-2.21-1.91-.17-4.68-.07-6.66,0Z"/><path class="cls-1" d="M67.55,59.17c-2.21.3-4.18,1.38-4.79,3.11-.48,1.33-.27,9.08-.27,11.5a4.25,4.25,0,0,0,.91,3.07c2.26,2.81,9.37,2.58,10.85-1.3.49-1.29.27-5.89.27-7.61,0-2.47.4-5.39-1-6.9a7.07,7.07,0,0,0-6-1.87M67.67,62c1.45-.37,2.94.18,3.21,1.36.15.61.06,8.13.06,9.41,0,1.82,0,2.69-1.6,3.11-1.38.37-2.94-.11-3.2-1.33-.15-.67-.06-8.06-.06-9.4C66.08,63.35,66,62.43,67.67,62Z"/><path class="cls-1" d="M11.63,76.09l-3.58.32c-.06,1.6.09,2.52-.93,3.31-.84.65-2.44.93-3.07,0s-.43-2.57-.43-3.82V71.66c0-1.86-.27-6.8.39-8.1a2.16,2.16,0,0,1,3-.66c1.11.67,1,1.66,1.07,3.25L11.62,66C12.46,57.4,1.14,56.91.09,64,0,64.63,0,78.51.06,79.51c.23,2.4,1.34,3.74,3.55,4.19a6.9,6.9,0,0,0,7.57-4,8.2,8.2,0,0,0,.45-3.61"/><path class="cls-1" d="M13,82.62c.62-.05,1.17-.14,1.78-.2l.88-.11c.25,0,.71,0,.88-.18S19.67,67.51,20,65.94c.9,2.89,2.15,11.37,3.28,13.34A3.57,3.57,0,0,0,27.07,81l-4.86-19a26.86,26.86,0,0,0-.7-2.75l-3,0a26.93,26.93,0,0,0-.72,2.85C17.15,64.85,13.16,81,13,82.62"/><path class="cls-1" d="M48.39,79.33l3.6-.14V62.06a10.68,10.68,0,0,1,3.57.27c1.93.77,1.39,5,.82,5.94s-1.91.81-3.21.78c.12,1.35,2.64,3.29,5.34,1.35,1.64-1.18,2.3-3.62,1.88-6.37a5,5,0,0,0-3.89-4.49,45.21,45.21,0,0,0-8.09-.26Z"/><path class="cls-1" d="M97.22,78.82l10.7.53V76.83c0-.36,0-.15-.11-.32s-6.17-.33-7-.34V70.58c1.24,0,3.09.26,4.16-.11A3,3,0,0,0,107,68l-6.1-.13L100.82,62l7.09,0v-2.7l-10.66,0Z"/><path class="cls-1" d="M144.05,82.8l10.68,1.55,0-3.5-7.07-1c-.09-.73,0-11.06,0-12.08,0-1.62.17-4.34-.25-5.74s-1.6-2.89-3.33-2.7Z"/><path class="cls-1" d="M87.81,78.54V70.35l6.18.08V67.77l-6.13,0,0-5.8,7.08,0,0-2.63H84.23c-.09.61,0,10.53,0,11.39,0,1.53-.19,4.12.32,5.38a4.33,4.33,0,0,0,3.28,2.51"/><path class="cls-1" d="M123.41,62.19h4.14V80.91c2.12.11,2.93-.4,3.36-2.21.59-2.47,0-13.14.25-16.42l4.13,0v-3l-11.87,0Z"/><path class="cls-1" d="M137,81.92l3.59.46V59.3c-4.37.05-3.6,3.57-3.6,6.1Z"/><rect class="cls-2" x="49.22" y="93.88" width="56.3" height="3.95"/></g></g></svg>