<svg xmlns="http://www.w3.org/2000/svg" viewBox="0 0 263.24 180.34"><defs><style>.cls-1,.cls-2{fill:#10481f;}.cls-1{fill-rule:evenodd;}</style></defs><title>Recurso 4Brand verde</title><g id="Capa_2" data-name="Capa 2"><g id="Capa_1-2" data-name="Capa 1"><path class="cls-1" d="M159.53,26.63c.32-3.85.83-8.53,4.94-13-4.92.12-8.36,2.55-11.32,5-7.26,6.86-12.91,21-18,29.77A65.75,65.75,0,0,1,127.92,59c-1,1.21-1.58,1.65-2.6,2.67L125,62a5.29,5.29,0,0,0-1.45,1.26,17,17,0,0,0-2.17,1.54,30.53,30.53,0,0,0-2.67,1.62l-2.94,1.34a1.5,1.5,0,0,0,.76.79,14.19,14.19,0,0,0,2.19,2.11C120,71.76,125,76,126.08,76.36a3.79,3.79,0,0,0,1.48.93,7.3,7.3,0,0,0,2.34,1.21,8.55,8.55,0,0,0,2.35.82l1.23.28c3.62,1.18,8.73-.91,11.06-2.62a116.47,116.47,0,0,0,15.25-14.11c3.59-3.91,10.28-12.15,12-17.67a18.5,18.5,0,0,0-2.2-15.14,8.39,8.39,0,0,1-1.31-2.46,7.37,7.37,0,0,1,1.32-5.92c1.91-2.91,4.72-4.77,7.74-6.95-7.83-.81-17.28,7.2-17.77,11.9"/><path class="cls-1" d="M111.33,53.32c-.32,3.84-.83,8.52-4.94,13,4.92-.12,8.36-2.55,11.32-5,7.26-6.86,12.91-21,18-29.77A64.88,64.88,0,0,1,142.94,21a37,37,0,0,1,2.6-2.67l.3-.37a5.16,5.16,0,0,0,1.45-1.27,16,16,0,0,0,2.17-1.53,30.6,30.6,0,0,0,2.67-1.63l2.94-1.34a1.62,1.62,0,0,0-.76-.79,14.62,14.62,0,0,0-2.19-2.1c-1.22-1.09-6.28-5.35-7.34-5.69a3.93,3.93,0,0,0-1.48-.94A7.09,7.09,0,0,0,141,1.45a8.55,8.55,0,0,0-2.35-.83L137.38.34c-3.62-1.17-8.73.91-11.06,2.63a117.08,117.08,0,0,0-15.25,14.1c-3.59,3.91-10.28,12.16-12,17.68a18.47,18.47,0,0,0,2.2,15.13,8.65,8.65,0,0,1,1.31,2.46,7.39,7.39,0,0,1-1.32,5.93c-1.91,2.91-4.72,4.76-7.74,6.95,7.83.8,17.28-7.21,17.77-11.9"/><path class="cls-1" d="M62.83,129.46c-.74-.8-7-17.76-7.87-20.18H49.1l0,39.75c4.46-.07,5.79-4.87,6.11-8.75.26-3.1-.21-13.52.2-14.86l.11-.25c.72,2.8,4.8,12.66,5.74,15.83l3.1-.19,4.49-12.32a41,41,0,0,1,1.59-4.06l0,22.66,6.1-.35,0-37.47-5.88,0Z"/><path class="cls-1" d="M187.51,146.57l6.11.44,0-32.6a18.36,18.36,0,0,1,5.83.41c3.62,1.31,2.67,8.57,1.51,10.16s-3.28,1.12-5.36,1.23a27.06,27.06,0,0,0,1.09,3.3c.4,1.17.78,2.27,1.17,3.39.8,2.32,1.54,4.55,2.34,6.85,1.62,4.61,3.43,9.08,9.17,8.56l-6.52-18.05c2.06-1.54,4.23-1.95,5-6.83.59-3.55,0-7.58-1.52-10s-3.93-3.71-7.53-4.06a109.39,109.39,0,0,0-11.32-.07Z"/><path class="cls-1" d="M114.91,109.07c-3.76.57-7.1,2.55-8.15,5.75-.81,2.45-.46,16.73-.46,21.19,0,2.6.34,4,1.55,5.66,3.85,5.18,15.93,4.77,18.45-2.4.84-2.38.46-10.86.46-14,0-4.54.68-9.93-1.67-12.71a11.5,11.5,0,0,0-10.18-3.46m.2,5.21c2.47-.69,5,.33,5.47,2.51.24,1.12.09,15,.09,17.35,0,3.35,0,4.94-2.71,5.73-2.35.67-5-.21-5.45-2.45-.25-1.24-.09-14.87-.09-17.33C112.42,116.78,112.28,115.09,115.11,114.28Z"/><path class="cls-1" d="M19.79,140.28l-6.1.58c-.09,3,.16,4.64-1.57,6.1-1.44,1.2-4.17,1.72-5.23,0s-.73-4.75-.73-7.06v-7.8c0-3.43-.47-12.54.65-15,1-2.08,3.64-2.16,5.08-1.21,1.88,1.24,1.65,3.06,1.82,6l6.06-.21C21.2,105.81,1.94,104.91.15,117.88c-.17,1.27-.21,26.84,0,28.69.39,4.44,2.28,6.91,6,7.74,5.58,1.23,10.84-2.38,12.88-7.38.87-2.11.79-4.13.78-6.65"/><path class="cls-1" d="M22,152.31c1.07-.09,2-.25,3-.38.54-.06,1.06-.14,1.5-.2s1.21,0,1.49-.33c.12-.17,5.4-26.94,6-29.83,1.52,5.33,3.65,21,5.57,24.57a6,6,0,0,0,6.42,3.26l-8.27-35c-.35-1.52-.74-3.79-1.19-5.06l-5-.06a50.54,50.54,0,0,0-1.24,5.25c-1.13,5-7.92,34.73-8.29,37.76"/><path class="cls-1" d="M82.31,146.25l6.14-.26V114.4c1.69-.12,4.69-.08,6.06.51,3.3,1.42,2.37,9.3,1.4,10.94s-3.24,1.49-5.45,1.45c.2,2.48,4.49,6,9.07,2.48,2.8-2.18,3.92-6.67,3.21-11.75-.64-4.53-2.82-7.2-6.62-8.27-2.2-.62-11.35-.74-13.77-.47Z"/><path class="cls-1" d="M165.38,145.29l18.19,1,0-4.65c-.07-.66.07-.28-.18-.58-.48-.29-10.51-.61-11.91-.64v-10.3c2.13,0,5.26.49,7.09-.19a5.44,5.44,0,0,0,3.36-4.49l-10.37-.24-.08-11,12.05.05,0-5-18.15,0Z"/><path class="cls-1" d="M245,152.64l18.17,2.85,0-6.45-12-1.84c-.17-1.35-.06-20.39-.06-22.27,0-3,.29-8-.42-10.58s-2.72-5.32-5.67-5Z"/><path class="cls-1" d="M149.38,144.78V129.69l10.52.15v-4.91l-10.43-.09-.08-10.7,12,0,0-4.84-18.17,0c-.15,1.13,0,19.41,0,21,0,2.82-.33,7.6.55,9.92.76,2,3.12,4.47,5.58,4.62"/><path class="cls-1" d="M209.93,114.65l7,0,0,34.48c3.6.21,5-.74,5.71-4.06,1-4.56,0-24.23.44-30.28l7,.06v-5.54l-20.2,0Z"/><path class="cls-1" d="M233,151l6.12.84V109.31c-7.43.11-6.13,6.59-6.13,11.25Z"/><rect class="cls-2" x="83.73" y="173.06" width="95.78" height="7.28"/></g></g></svg>