<svg width="41" height="43" viewBox="0 0 41 43" fill="none" xmlns="http://www.w3.org/2000/svg">
<g clip-path="url(#clip0_2_3443)">
<path d="M20.5 3.87538C25.9735 3.87538 26.6227 3.89687 28.7854 4.00079C34.3409 4.26596 36.9359 7.0305 37.1887 12.814C37.2878 15.0805 37.3066 15.7613 37.3066 21.5018C37.3066 27.2441 37.2861 27.9231 37.1887 30.1896C36.9342 35.9677 34.346 38.7376 28.7854 39.0028C26.6227 39.1067 25.9769 39.1282 20.5 39.1282C15.0265 39.1282 14.3773 39.1067 12.2163 39.0028C6.64713 38.7358 4.06583 35.9588 3.813 30.1878C3.71392 27.9213 3.69342 27.2423 3.69342 21.5C3.69342 15.7595 3.71563 15.0805 3.813 12.8122C4.06754 7.0305 6.65567 4.26417 12.2163 3.999C14.379 3.89688 15.0265 3.87538 20.5 3.87538ZM20.5 0C14.9325 0 14.2355 0.0250833 12.0489 0.129C4.60396 0.487333 0.466375 4.81958 0.124708 12.6348C0.0239167 14.93 0 15.661 0 21.5C0 27.339 0.0239167 28.0718 0.123 30.3652C0.464667 38.1732 4.59542 42.5127 12.0472 42.871C14.2355 42.9749 14.9325 43 20.5 43C26.0675 43 26.7662 42.9749 28.9528 42.871C36.3909 42.5127 40.5387 38.1804 40.8753 30.3652C40.9761 28.0718 41 27.339 41 21.5C41 15.661 40.9761 14.93 40.877 12.6366C40.5422 4.83571 36.4063 0.489125 28.9545 0.130792C26.7662 0.0250833 26.0675 0 20.5 0ZM20.5 10.4597C14.6865 10.4597 9.97325 15.403 9.97325 21.5C9.97325 27.597 14.6865 32.542 20.5 32.542C26.3135 32.542 31.0268 27.5988 31.0268 21.5C31.0268 15.403 26.3135 10.4597 20.5 10.4597ZM20.5 28.6667C16.7263 28.6667 13.6667 25.4596 13.6667 21.5C13.6667 17.5422 16.7263 14.3333 20.5 14.3333C24.2737 14.3333 27.3333 17.5422 27.3333 21.5C27.3333 25.4596 24.2737 28.6667 20.5 28.6667ZM31.4436 7.44438C30.0838 7.44438 28.9819 8.6 28.9819 10.0244C28.9819 11.4487 30.0838 12.6044 31.4436 12.6044C32.8017 12.6044 33.9019 11.4487 33.9019 10.0244C33.9019 8.6 32.8017 7.44438 31.4436 7.44438Z" fill="black"/>
</g>
<defs>
<clipPath id="clip0_2_3443">
<rect width="41" height="43" fill="white"/>
</clipPath>
</defs>
</svg>
