<svg width="41" height="44" viewBox="0 0 41 44" fill="none" xmlns="http://www.w3.org/2000/svg">
<mask id="mask0_177_7" style="mask-type:luminance" maskUnits="userSpaceOnUse" x="0" y="0" width="41" height="44">
<path d="M41 0.5H0V43.5H41V0.5Z" fill="white"/>
</mask>
<g mask="url(#mask0_177_7)">
<path d="M20.5 4.37538C25.9735 4.37538 26.6227 4.39687 28.7854 4.50079C34.3409 4.76596 36.9359 7.5305 37.1887 13.314C37.2878 15.5805 37.3066 16.2613 37.3066 22.0018C37.3066 27.7441 37.2861 28.4231 37.1887 30.6896C36.9342 36.4677 34.346 39.2376 28.7854 39.5028C26.6227 39.6067 25.9769 39.6282 20.5 39.6282C15.0265 39.6282 14.3773 39.6067 12.2163 39.5028C6.64713 39.2358 4.06583 36.4588 3.813 30.6878C3.71392 28.4213 3.69342 27.7423 3.69342 22C3.69342 16.2595 3.71563 15.5805 3.813 13.3122C4.06754 7.5305 6.65567 4.76417 12.2163 4.499C14.379 4.39688 15.0265 4.37538 20.5 4.37538ZM20.5 0.5C14.9325 0.5 14.2355 0.525083 12.0489 0.629C4.60396 0.987333 0.466375 5.31958 0.124708 13.1348C0.0239167 15.43 0 16.161 0 22C0 27.839 0.0239167 28.5718 0.123 30.8652C0.464667 38.6732 4.59542 43.0127 12.0472 43.371C14.2355 43.4749 14.9325 43.5 20.5 43.5C26.0675 43.5 26.7662 43.4749 28.9528 43.371C36.3909 43.0127 40.5387 38.6804 40.8753 30.8652C40.9761 28.5718 41 27.839 41 22C41 16.161 40.9761 15.43 40.877 13.1366C40.5422 5.33571 36.4063 0.989125 28.9545 0.630792C26.7662 0.525083 26.0675 0.5 20.5 0.5ZM20.5 10.9597C14.6865 10.9597 9.97325 15.903 9.97325 22C9.97325 28.097 14.6865 33.042 20.5 33.042C26.3135 33.042 31.0268 28.0988 31.0268 22C31.0268 15.903 26.3135 10.9597 20.5 10.9597ZM20.5 29.1667C16.7263 29.1667 13.6667 25.9596 13.6667 22C13.6667 18.0422 16.7263 14.8333 20.5 14.8333C24.2737 14.8333 27.3333 18.0422 27.3333 22C27.3333 25.9596 24.2737 29.1667 20.5 29.1667ZM31.4436 7.94438C30.0838 7.94438 28.9819 9.1 28.9819 10.5244C28.9819 11.9487 30.0838 13.1044 31.4436 13.1044C32.8017 13.1044 33.9019 11.9487 33.9019 10.5244C33.9019 9.1 32.8017 7.94438 31.4436 7.94438Z" fill="#356E48"/>
</g>
</svg>
