<svg width="41" height="43" viewBox="0 0 41 43" fill="none" xmlns="http://www.w3.org/2000/svg">
<g clip-path="url(#clip0_2_3441)">
<path d="M32.4583 0H8.54167C3.82496 0 0 4.01154 0 8.95833V34.0417C0 38.9885 3.82496 43 8.54167 43H32.4583C37.1768 43 41 38.9885 41 34.0417V8.95833C41 4.01154 37.1768 0 32.4583 0ZM13.6667 34.0417H8.54167V14.3333H13.6667V34.0417ZM11.1042 12.0615C9.45392 12.0615 8.11458 10.6461 8.11458 8.901C8.11458 7.15592 9.45392 5.7405 11.1042 5.7405C12.7544 5.7405 14.0938 7.15592 14.0938 8.901C14.0938 10.6461 12.7561 12.0615 11.1042 12.0615ZM34.1667 34.0417H29.0417V24.0012C29.0417 17.9668 22.2083 18.4237 22.2083 24.0012V34.0417H17.0833V14.3333H22.2083V17.4956C24.5932 12.8624 34.1667 12.5202 34.1667 21.9318V34.0417Z" fill="black"/>
</g>
<defs>
<clipPath id="clip0_2_3441">
<rect width="41" height="43" fill="white"/>
</clipPath>
</defs>
</svg>
