<svg width="41" height="44" viewBox="0 0 41 44" fill="none" xmlns="http://www.w3.org/2000/svg">
<g clip-path="url(#clip0_177_8)">
<mask id="mask0_177_8" style="mask-type:luminance" maskUnits="userSpaceOnUse" x="0" y="0" width="41" height="44">
<path d="M41 0.5H0V43.5H41V0.5Z" fill="white"/>
</mask>
<g mask="url(#mask0_177_8)">
<path d="M32.4583 0.5H8.54167C3.82496 0.5 0 4.51154 0 9.45833V34.5417C0 39.4885 3.82496 43.5 8.54167 43.5H32.4583C37.1768 43.5 41 39.4885 41 34.5417V9.45833C41 4.51154 37.1768 0.5 32.4583 0.5ZM13.6667 34.5417H8.54167V14.8333H13.6667V34.5417ZM11.1042 12.5615C9.45392 12.5615 8.11458 11.1461 8.11458 9.401C8.11458 7.65592 9.45392 6.2405 11.1042 6.2405C12.7544 6.2405 14.0938 7.65592 14.0938 9.401C14.0938 11.1461 12.7561 12.5615 11.1042 12.5615ZM34.1667 34.5417H29.0417V24.5012C29.0417 18.4668 22.2083 18.9237 22.2083 24.5012V34.5417H17.0833V14.8333H22.2083V17.9956C24.5932 13.3624 34.1667 13.0202 34.1667 22.4318V34.5417Z" fill="#356E48"/>
</g>
</g>
<defs>
<clipPath id="clip0_177_8">
<rect width="41" height="43" fill="white" transform="translate(0 0.5)"/>
</clipPath>
</defs>
</svg>
