<?xml version="1.0" encoding="UTF-8"?>
<svg width="1024px" height="471px" viewBox="0 0 1024 471" version="1.1" xmlns="http://www.w3.org/2000/svg" xmlns:xlink="http://www.w3.org/1999/xlink">
    <!-- Generator: Sketch 51.2 (57519) - http://www.bohemiancoding.com/sketch -->
    <title>latijereta-logo</title>
    <desc>Created with Sketch.</desc>
    <defs></defs>
    <g id="latijereta-logo" stroke="none" stroke-width="1" fill="none" fill-rule="evenodd">
        <g id="Group" transform="translate(1.000000, 2.000000)" fill-rule="nonzero">
            <g>
                <path d="M524.147922,315.620482 L532.7241,315.620482 C541.300277,315.620482 542.157895,321.629518 541.300277,331.072289 C540.156787,343.090361 536.440443,347.954819 528.436011,347.954819 L519.859834,347.954819 L524.147922,315.620482 Z M528.150139,351.674699 C541.300277,351.674699 545.01662,341.373494 546.731856,331.644578 C548.447091,321.629518 547.589474,311.328313 532.7241,311.328313 L519.288089,311.328313 L513.85651,351.674699 L528.150139,351.674699 Z" id="Shape" fill="#000000"></path>
                <path d="M555.593906,333.64759 C556.165651,330.213855 557.023269,324.490964 563.026593,324.490964 C569.029917,324.490964 567.886427,329.927711 567.600554,333.64759 L555.593906,333.64759 Z M567.028809,341.945783 C567.028809,345.379518 565.027701,349.099398 560.167867,349.099398 C553.021053,349.099398 555.022161,341.373494 555.308033,337.36747 L572.74626,337.36747 C573.318006,330.5 575.319114,321.343373 563.598338,321.343373 C554.164543,321.343373 550.734072,330.786145 549.876454,337.081325 C548.161219,349.099398 552.73518,352.819277 559.310249,352.819277 C566.742936,352.819277 571.031025,347.954819 571.60277,341.945783 L567.028809,341.945783 Z" id="Shape" fill="#000000"></path>
                <path d="M580.750693,338.225904 C580.178947,342.231928 579.607202,349.099398 586.182271,349.099398 C591.61385,349.099398 592.757341,345.093373 593.614958,341.373494 L598.474792,341.373494 C597.617175,347.096386 594.186704,352.533133 586.182271,352.533133 C575.319114,352.533133 574.747368,344.807229 575.604986,337.081325 C576.748476,329.927711 579.32133,321.057229 590.184488,321.057229 C597.331302,321.057229 600.190028,325.635542 599.33241,331.358434 L594.472576,331.358434 C594.758449,327.924699 594.186704,324.777108 589.32687,324.777108 C582.180055,324.777108 581.322438,333.933735 580.750693,338.225904 Z" id="Shape" fill="#000000"></path>
                <path d="M601.333518,351.674699 L605.335734,321.915663 L610.48144,321.915663 L606.479224,351.674699 L601.333518,351.674699 Z M605.907479,316.76506 L606.479224,311.328313 L611.624931,311.328313 L611.053186,316.76506 L605.907479,316.76506 Z" id="Shape" fill="#000000"></path>
                <path d="M630.492521,329.927711 C631.064266,326.493976 629.920776,324.777108 625.632687,324.777108 C621.916343,324.777108 619.629363,326.207831 619.34349,329.355422 C618.771745,333.361446 622.488089,333.64759 625.91856,335.078313 C630.778393,337.081325 635.9241,337.939759 635.066482,343.662651 C634.208864,349.385542 629.063158,352.819277 621.630471,352.819277 C618.485873,352.819277 614.769529,351.960843 613.054294,349.671687 C611.339058,347.38253 611.624931,345.379518 611.910803,343.376506 L616.770637,343.376506 C616.198892,347.096386 617.342382,349.385542 621.916343,349.385542 C625.91856,349.385542 629.063158,347.954819 629.34903,344.23494 C629.920776,339.942771 624.775069,339.656627 621.344598,338.225904 C616.198892,336.509036 613.054294,334.792169 613.626039,329.641566 C614.197784,324.490964 619.057618,321.057229 625.346814,321.057229 C632.493629,321.057229 636.209972,323.918675 635.352355,329.927711 L630.492521,329.927711 Z" id="Shape" fill="#000000"></path>
                <path d="M638.496953,351.674699 L642.499169,321.915663 L647.644875,321.915663 L643.642659,351.674699 L638.496953,351.674699 Z M643.070914,316.76506 L643.928532,311.328313 L649.074238,311.328313 L648.502493,316.76506 L643.070914,316.76506 Z" id="Shape" fill="#000000"></path>
                <path d="M670.800554,337.081325 C669.942936,344.23494 667.655956,348.813253 661.652632,348.813253 C655.649307,348.813253 654.79169,343.948795 655.649307,337.081325 C656.792798,327.924699 659.651524,324.490964 664.79723,324.490964 C670.228809,324.777108 671.944044,328.210843 670.800554,337.081325 Z M676.232133,335.650602 C677.375623,326.493976 674.231025,320.771084 665.368975,320.771084 C656.506925,320.771084 651.647091,326.493976 650.503601,335.650602 C648.788366,348.527108 653.362327,352.533133 661.080886,352.533133 C669.085319,352.533133 674.516898,348.813253 676.232133,335.650602 Z" id="Shape" fill="#000000"></path>
                <path d="M687.667036,325.063253 C690.525762,322.487952 693.384488,321.057229 697.386704,321.057229 C702.818283,321.057229 705.962881,323.346386 705.105263,328.783133 L701.960665,351.674699 L696.814958,351.674699 L699.673684,329.927711 C699.959557,326.78012 699.101939,324.777108 695.099723,324.777108 C693.384488,324.777108 691.38338,325.349398 689.954017,326.493976 C687.667036,327.924699 687.095291,329.641566 686.809418,331.930723 L684.236565,351.960843 L679.376731,351.960843 L683.378947,322.201807 L688.238781,322.201807 L687.667036,325.063253 Z" id="Shape" fill="#000000"></path>
                <path d="M714.539058,333.64759 C715.110803,330.213855 715.968421,324.490964 721.971745,324.490964 C727.975069,324.490964 726.831579,329.927711 726.545706,333.64759 L714.539058,333.64759 Z M725.688089,341.945783 C725.688089,345.379518 723.686981,349.099398 718.827147,349.099398 C711.680332,349.099398 713.395568,341.373494 713.967313,337.36747 L731.40554,337.36747 C731.977285,330.5 733.978393,321.343373 722.257618,321.343373 C712.823823,321.343373 709.393352,330.786145 708.535734,337.081325 C707.106371,349.099398 711.39446,352.819277 717.969529,352.819277 C725.402216,352.819277 729.690305,347.954819 730.26205,341.945783 L725.688089,341.945783 Z" id="Shape" fill="#000000"></path>
                <path d="M752.274238,329.927711 C752.845983,326.493976 751.702493,324.777108 747.414404,324.777108 C743.698061,324.777108 741.696953,326.207831 741.125208,329.355422 C740.553463,333.361446 744.269806,333.64759 747.700277,335.078313 C752.560111,337.081325 757.705817,337.939759 756.848199,343.662651 C755.990582,349.385542 750.844875,352.819277 743.412188,352.819277 C740.26759,352.819277 736.551247,351.960843 734.836011,349.671687 C733.120776,347.38253 733.406648,345.379518 733.692521,343.376506 L738.552355,343.376506 C737.980609,347.096386 739.1241,349.385542 743.698061,349.385542 C747.98615,349.385542 750.844875,347.954819 751.130748,344.23494 C751.702493,339.942771 746.556787,339.656627 743.126316,338.225904 C737.694737,336.509036 734.836011,334.792169 735.407756,329.641566 C735.979501,324.490964 740.839335,321.057229 747.128532,321.057229 C754.275346,321.057229 757.99169,323.918675 757.134072,329.927711 L752.274238,329.927711 Z" id="Shape" fill="#000000"></path>
                <path d="M782.004986,326.78012 C784.863712,322.774096 788.00831,321.057229 793.439889,321.629518 L792.868144,325.921687 C786.293075,325.063253 782.004986,328.496988 781.433241,333.933735 L779.14626,351.960843 L774.000554,351.960843 L778.00277,322.201807 L782.862604,322.201807 L782.004986,326.78012 Z" id="Shape" fill="#000000"></path>
                <path d="M797.727978,333.64759 C798.299723,330.213855 799.157341,324.490964 805.160665,324.490964 C811.163989,324.490964 810.020499,329.927711 809.734626,333.64759 L797.727978,333.64759 Z M809.162881,341.945783 C808.877008,345.379518 807.161773,349.099398 802.301939,349.099398 C795.155125,349.099398 796.87036,341.373494 797.442105,337.36747 L814.880332,337.36747 C815.452078,330.5 817.453186,321.343373 805.73241,321.343373 C796.298615,321.343373 792.868144,330.786145 792.296399,337.081325 C790.581163,349.099398 794.869252,352.819277 801.730194,352.819277 C809.162881,352.819277 813.45097,347.954819 814.022715,341.945783 L809.162881,341.945783 Z" id="Shape" fill="#000000"></path>
                <path d="M826.315235,325.063253 C829.173961,322.487952 832.032687,321.057229 836.034903,321.057229 C841.466482,321.057229 844.61108,323.346386 843.753463,328.783133 L840.608864,351.674699 L835.463158,351.674699 L838.321884,329.927711 C838.607756,326.78012 837.750139,324.777108 833.747922,324.777108 C831.746814,324.777108 830.031579,325.349398 828.602216,326.493976 C826.315235,327.924699 825.74349,329.641566 825.457618,331.930723 L822.884765,351.960843 L817.739058,351.960843 L821.741274,322.201807 L826.601108,322.201807 L826.315235,325.063253 Z" id="Shape" fill="#000000"></path>
                <path d="M856.903601,321.915663 L862.906925,321.915663 L862.33518,325.635542 L856.617729,325.635542 L853.759003,345.951807 C853.759003,346.810241 852.901385,348.240964 855.760111,348.240964 L859.190582,348.240964 L858.618837,351.674699 L852.901385,351.674699 C849.756787,351.674699 847.755679,351.388554 848.327424,346.810241 L851.18615,325.349398 L846.326316,325.349398 L846.898061,321.629518 L851.757895,321.629518 L852.901385,313.61747 L858.047091,313.61747 L856.903601,321.915663 Z" id="Shape" fill="#000000"></path>
                <path d="M877.200554,342.804217 C876.628809,347.668675 872.054848,348.813253 870.05374,348.813253 C866.051524,348.813253 865.193906,346.810241 865.765651,343.948795 C866.051524,341.945783 867.195014,339.656627 869.767867,338.798193 C872.626593,337.653614 875.485319,336.795181 878.344044,335.650602 L877.200554,342.804217 Z M884.633241,348.527108 C883.775623,348.527108 883.203878,348.527108 882.34626,348.527108 C881.20277,348.240964 881.774515,347.096386 881.774515,346.237952 L884.061496,329.069277 C884.061496,328.496988 886.062604,321.057229 875.485319,321.057229 C868.338504,321.057229 864.336288,323.918675 863.764543,329.927711 L868.338504,329.927711 C868.910249,326.493976 869.767867,324.777108 874.341828,324.777108 C878.344044,324.777108 879.773407,326.207831 879.487535,329.355422 C879.201662,331.072289 879.201662,332.216867 878.058172,332.789157 C877.486427,333.075301 869.767867,335.364458 866.909141,336.509036 C861.763435,338.225904 860.905817,342.518072 860.905817,343.662651 C860.048199,349.099398 861.763435,352.533133 868.910249,352.533133 C872.34072,352.533133 875.771191,350.243976 877.486427,347.668675 C877.486427,351.674699 879.201662,351.960843 883.489751,351.960843 C883.775623,351.960843 884.347368,351.674699 884.633241,351.674699 L884.633241,348.527108 Z" id="Shape" fill="#000000"></path>
                <path d="M894.638781,337.653614 C895.210526,333.361446 895.782271,324.777108 903.500831,324.777108 C910.0759,324.777108 909.218283,332.503012 908.93241,336.509036 C907.78892,344.521084 905.787812,349.099398 900.356233,349.099398 C893.209418,349.099398 894.067036,341.945783 894.638781,337.653614 Z M893.209418,348.240964 C894.924654,351.674699 897.78338,352.533133 900.927978,352.533133 C910.647645,352.533133 913.220499,343.376506 914.363989,334.792169 C915.221607,328.783133 914.078116,321.057229 904.930194,321.057229 C901.785596,321.057229 899.212742,322.201807 896.925762,325.063253 L898.640997,311.614458 L893.495291,311.614458 L888.063712,351.960843 L892.637673,351.960843 L893.209418,348.240964 Z" id="Shape" fill="#000000"></path>
                <polygon id="Shape" fill="#000000" points="917.222715 351.674699 922.654294 311.328313 927.8 311.328313 922.368421 351.674699"></polygon>
                <path d="M934.375069,333.64759 C934.946814,330.213855 935.804432,324.490964 941.807756,324.490964 C947.81108,324.490964 946.66759,329.927711 946.381717,333.64759 L934.375069,333.64759 Z M945.809972,341.945783 C945.809972,345.379518 943.808864,349.099398 938.94903,349.099398 C931.802216,349.099398 933.803324,341.373494 934.089197,337.36747 L951.527424,337.36747 C952.099169,330.5 954.100277,321.343373 942.379501,321.343373 C932.945706,321.343373 929.515235,330.786145 928.94349,337.081325 C927.228255,349.099398 931.802216,352.819277 938.377285,352.819277 C945.809972,352.819277 950.098061,347.954819 950.669806,341.945783 L945.809972,341.945783 Z" id="Shape" fill="#000000"></path>
                <path d="M972.110249,329.927711 C972.681994,326.493976 971.538504,324.777108 967.250416,324.777108 C963.819945,324.777108 961.532964,326.207831 960.961219,329.355422 C960.389474,333.361446 964.105817,333.64759 967.536288,335.078313 C972.396122,337.081325 977.541828,337.939759 976.684211,343.662651 C975.826593,349.385542 970.680886,352.819277 963.248199,352.819277 C960.103601,352.819277 956.387258,351.960843 954.672022,349.671687 C952.956787,347.38253 953.242659,345.379518 953.528532,343.376506 L958.388366,343.376506 C957.81662,347.096386 958.960111,349.385542 963.819945,349.385542 C967.822161,349.385542 970.966759,347.954819 971.252632,344.23494 C971.824377,339.942771 966.67867,339.656627 963.248199,338.225904 C957.81662,336.509036 954.957895,334.792169 955.52964,329.641566 C956.101385,324.490964 960.961219,321.057229 967.250416,321.057229 C974.39723,321.057229 978.113573,323.918675 977.255956,329.927711 L972.110249,329.927711 Z" id="Shape" fill="#000000"></path>
                <g fill="#006BB6" id="Shape">
                    <path d="M229.413296,470.710843 C234.559003,387.442771 232.843767,358.256024 257.428809,144.21988 C257.428809,144.21988 69.0387812,388.587349 41.5950139,436.087349 L201.683657,288.150602 C201.969529,288.436747 229.699169,468.993976 229.413296,470.710843 Z"></path>
                    <path d="M253.998338,245.801205 L266.290859,136.493976 C266.290859,136.493976 383.212742,-46.6385542 560.45374,11.7349398 C560.45374,12.0210843 379.210526,6.87048193 253.998338,245.801205 Z"></path>
                    <path d="M0.429362881,117.894578 C0.429362881,117.894578 178.242105,71.8253012 232.843767,162.819277 L277.154017,108.451807 C277.154017,108.451807 162.519114,-5.43373494 0.429362881,117.894578 Z"></path>
                    <path d="M281.156233,102.442771 C281.156233,102.442771 311.458726,68.3915663 329.754571,56.373494 C329.754571,56.373494 285.730194,62.9548193 266.862604,90.4246988 C266.862604,90.4246988 274.295291,95.8614458 281.156233,102.442771 Z"></path>
                </g>
                <rect id="Rectangle-path" fill="#006BB6" x="224.839335" y="281.283133" width="804.159557" height="9.44277108"></rect>
                <polygon id="Shape" fill="#000000" points="374.922438 140.5 458.111357 140.5 455.538504 157.38253 426.379501 157.38253 411.8 256.10241 386.929086 256.10241 401.508587 157.38253 372.349584 157.38253"></polygon>
                <polygon id="Shape" fill="#000000" points="447.819945 256.10241 464.686427 140.5 489.557341 140.5 472.690859 256.10241"></polygon>
                <path d="M511.569529,219.475904 L509.568421,233.783133 C509.282548,238.075301 510.426039,241.509036 516.429363,241.509036 C525.291413,241.509036 526.434903,235.786145 527.292521,229.490964 L540.442659,140.786145 L565.313573,140.786145 L553.021053,224.912651 C551.877562,232.638554 551.019945,244.084337 541.872022,251.524096 C533.581717,258.391566 522.432687,258.963855 510.140166,258.963855 C501.278116,258.963855 491.558449,256.10241 486.12687,247.231928 C483.839889,242.939759 484.411634,230.349398 486.698615,219.762048 L511.569529,219.762048 L511.569529,219.475904 Z" id="Shape" fill="#000000"></path>
                <polygon id="Shape" fill="#000000" points="557.880886 256.10241 574.747368 140.5 645.072022 140.5 642.499169 157.38253 597.331302 157.38253 593.043213 186.569277 634.780609 186.569277 632.207756 203.451807 590.47036 203.451807 585.324654 238.933735 630.778393 238.933735 628.20554 255.816265 557.880886 255.816265"></polygon>
                <path d="M674.516898,157.38253 L693.098615,157.38253 C702.53241,157.668675 708.535734,159.671687 706.534626,172.548193 C704.819391,183.993976 697.672576,188.858434 689.382271,189.144578 L669.657064,189.144578 L674.516898,157.38253 Z M671.658172,206.313253 C678.804986,206.313253 686.237673,206.313253 692.52687,208.03012 C700.817175,210.033133 699.101939,219.762048 698.244321,226.915663 C697.386704,234.641566 694.81385,248.662651 696.529086,256.10241 L723.972853,256.10241 L724.258726,253.813253 C718.827147,250.379518 723.686981,222.051205 724.258726,217.186747 C725.973961,206.027108 722.54349,198.01506 707.963989,196.298193 L707.963989,196.012048 C725.116343,194.009036 730.833795,180.846386 732.54903,168.256024 C735.693629,147.081325 720.25651,140.5 698.530194,140.5 L651.361219,140.5 L634.494737,256.10241 L659.365651,256.10241 L666.798338,206.313253 L671.658172,206.313253 Z" id="Shape" fill="#000000"></path>
                <polygon id="Shape" fill="#000000" points="731.119668 256.10241 747.98615 140.5 818.310803 140.5 815.73795 157.38253 770.284211 157.38253 765.996122 186.569277 808.019391 186.569277 805.446537 203.451807 763.709141 203.451807 758.563435 238.933735 804.017175 238.933735 801.444321 255.816265 731.119668 255.816265"></polygon>
                <polygon id="Shape" fill="#000000" points="823.45651 140.5 906.645429 140.5 904.072576 157.38253 874.913573 157.38253 860.334072 256.10241 835.463158 256.10241 850.042659 157.38253 820.883657 157.38253"></polygon>
                <path d="M935.51856,177.126506 C937.519668,171.689759 938.94903,166.539157 940.378393,161.10241 C940.950139,158.527108 941.521884,155.951807 942.379501,153.376506 L942.665374,153.376506 C942.665374,155.951807 942.665374,158.527108 942.379501,161.10241 C942.379501,166.539157 942.093629,171.689759 942.379501,177.126506 L944.380609,210.033133 L922.940166,210.033133 L935.51856,177.126506 Z M905.787812,256.10241 L916.65097,226.915663 L945.809972,226.915663 L948.096953,256.10241 L974.968975,256.10241 L961.532964,140.5 L928.085873,140.5 L879.201662,256.10241 L905.787812,256.10241 Z" id="Shape" fill="#000000"></path>
                <polygon id="Shape" fill="#006BB6" points="544.159003 119.039157 559.596122 12.0210843 582.751801 12.0210843 569.601662 103.301205 612.482548 103.301205 610.195568 119.039157"></polygon>
                <path d="M660.223269,45.7861446 C662.224377,40.9216867 663.367867,36.0572289 664.79723,30.9066265 C665.368975,28.3313253 665.94072,26.0421687 666.512465,23.753012 L666.798338,23.753012 C666.798338,26.0421687 666.798338,28.3313253 666.512465,30.9066265 C666.512465,35.7710843 666.226593,40.6355422 666.798338,45.7861446 L668.799446,76.1174699 L649.074238,76.1174699 L660.223269,45.7861446 Z M633.065374,119.039157 L643.070914,91.8554217 L669.942936,91.8554217 L672.229917,119.039157 L696.814958,119.039157 L684.236565,12.0210843 L653.076454,12.0210843 L608.19446,119.039157 L633.065374,119.039157 Z" id="Shape" fill="#006BB6"></path>
            </g>
            <path d="M1001.28333,136 C1010.63333,136 1018,143.333333 1018,152.358974 C1018,161.666667 1010.63333,169 1001,169 C991.65,169 984,161.666667 984,152.358974 C984.283333,143.333333 991.933333,136 1001.28333,136 Z M1001.28333,139.384615 C993.916667,139.384615 988.533333,145.307692 988.533333,152.641026 C988.533333,159.974359 993.916667,165.897436 1001.56667,165.897436 C1008.93333,165.897436 1014.03333,159.974359 1014.03333,152.641026 C1014.03333,145.307692 1008.65,139.384615 1001.28333,139.384615 Z M998.733333,161.102564 L994.766667,161.102564 L994.766667,144.74359 C996.183333,144.461538 998.45,144.179487 1001,144.179487 C1004.11667,144.179487 1005.53333,144.74359 1006.66667,145.589744 C1007.51667,146.153846 1008.36667,147.564103 1008.36667,148.974359 C1008.36667,150.948718 1006.95,152.358974 1004.96667,152.923077 L1004.96667,153.205128 C1006.66667,153.769231 1007.51667,154.897436 1008.08333,157.153846 C1008.65,159.692308 1008.93333,160.538462 1009.21667,161.102564 L1004.96667,161.102564 C1004.4,160.538462 1004.11667,159.128205 1003.55,157.153846 C1003.26667,155.461538 1002.13333,154.615385 1000.15,154.615385 L998.45,154.615385 L998.45,161.102564 L998.733333,161.102564 Z M998.733333,151.794872 L1000.43333,151.794872 C1002.7,151.794872 1004.4,151.230769 1004.4,149.25641 C1004.4,147.846154 1003.26667,146.717949 1001,146.717949 C999.866667,146.717949 999.3,146.717949 998.733333,147 L998.733333,151.794872 Z" id="Shape" fill="#000000"></path>
        </g>
    </g>
</svg>