<svg width="377" height="193" viewBox="0 0 377 193" fill="none" xmlns="http://www.w3.org/2000/svg">
<g filter="url(#filter0_d_25_80)">
<rect x="4.52295" width="368.02" height="185" rx="20" fill="#03491D"/>
<path d="M212.72 80.2981C210.888 79.7115 208.091 79.4204 204.327 79.4249H187.449L178.469 110.655H188.666L192 99.0627H199.052C201.343 99.1149 203.634 98.9745 205.903 98.6428C207.607 98.307 209.262 97.7469 210.825 96.9763C212.565 96.1667 214.119 94.9901 215.384 93.5233C216.544 92.2311 217.415 90.6957 217.936 89.0238C218.57 86.8285 218.316 84.9731 217.174 83.4577C216.05 81.9523 214.492 80.847 212.72 80.2981ZM207.745 89.2371C207.328 90.4469 206.501 91.4636 205.414 92.1035C204.171 92.9501 202.295 93.3633 199.808 93.3633H193.296L195.679 85.0842H202.191C204.477 85.0842 206.065 85.4642 206.964 86.2108C207.397 86.5606 207.707 87.0447 207.848 87.5905C207.989 88.1363 207.953 88.7141 207.745 89.2371ZM234.632 106.289C233.209 106.371 231.805 105.924 230.679 105.029C229.722 104.196 229.481 102.949 229.95 101.302C230.041 100.996 230.152 100.636 230.295 100.229H250.664C251.966 95.6342 251.467 92.2901 249.166 90.197C246.861 88.1039 243.657 87.064 239.581 87.064C235.329 86.9836 231.143 88.1542 227.521 90.437C224.223 92.4075 221.773 95.5815 220.665 99.3227C219.953 101.78 220.061 103.896 220.99 105.669C221.938 107.471 223.449 108.896 225.281 109.715C227.23 110.635 229.781 111.095 232.933 111.095C240.169 111.095 245.737 108.428 249.635 103.096L241.3 102.629C239.963 105.069 237.74 106.289 234.632 106.289ZM238.663 91.5169C241.919 91.5169 243.273 93.0967 242.667 96.2697H231.402C232.731 93.0967 235.151 91.5124 238.663 91.5169ZM270.498 101.282L268.343 87.544H258.478L263.355 110.655C262.835 111.505 262.142 112.23 261.323 112.781C260.555 113.288 259.24 113.535 257.416 113.535C255.911 113.527 254.408 113.42 252.917 113.215L251.413 118.454C252.876 118.626 254.348 118.717 255.821 118.727C258.014 118.799 260.201 118.461 262.274 117.727C263.82 117.138 265.232 116.231 266.422 115.061C268.002 113.388 269.468 111.606 270.811 109.728L287.09 87.5773H280.311L270.498 101.282ZM306.964 80.2648L298.772 80.7114L296.063 87.544H290.509L288.978 92.8434H294.005L290.906 103.596C290.092 106.442 290.333 108.422 291.655 109.502C292.977 110.581 295.562 111.135 299.469 111.135C301.479 111.075 303.485 110.908 305.479 110.635L306.938 105.575C305.798 105.635 304.795 105.675 303.942 105.675C302.093 105.675 300.973 105.469 300.582 105.055C300.211 104.642 300.191 103.829 300.55 102.616L303.408 92.8434H310.213L311.73 87.544H304.906L306.964 80.2648ZM333.538 87.064C329.287 86.9845 325.104 88.1551 321.485 90.437C317.947 92.699 315.657 95.6675 314.615 99.3427C313.898 101.8 314.003 103.916 314.927 105.689C315.881 107.489 317.393 108.912 319.225 109.735C321.166 110.655 323.716 111.115 326.876 111.115C334.117 111.115 339.682 108.448 343.572 103.116L335.237 102.649C333.935 105.075 331.714 106.289 328.576 106.289C327.152 106.375 325.747 105.927 324.623 105.029C323.666 104.196 323.419 102.949 323.894 101.302C323.985 100.996 324.096 100.636 324.233 100.229H344.627C345.929 95.6342 345.432 92.2901 343.136 90.197C340.839 88.1039 337.649 87.0596 333.564 87.064H333.538ZM336.618 96.2697H325.366C326.694 93.0967 329.118 91.5124 332.639 91.5169C335.917 91.5169 337.243 93.1012 336.618 96.2697Z" fill="white"/>
<path d="M291.036 49.7548L288.659 49.9748L287.565 53.8077H285.143L284.57 55.7208H286.94L284.726 63.26C284.38 64.3372 284.105 65.4374 283.906 66.553C283.606 68.8794 284.739 70.0393 287.318 70.0393C287.715 70.0393 288.34 69.9993 289.2 69.9059L289.643 69.8526L290.15 67.8928C289.18 67.9995 288.47 68.0528 288.008 68.0528C286.706 68.0528 286.126 67.4595 286.276 66.2997C286.394 65.6224 286.557 64.9542 286.764 64.2999L289.304 55.6941H292.814L293.38 53.781H289.857L291.036 49.7548ZM248.99 53.4411C247.848 53.4432 246.721 53.7016 245.687 54.1979C244.653 54.6943 243.738 55.4166 243.006 56.3141C241.357 58.1101 240.301 60.3902 239.985 62.8334C239.711 64.9798 240.037 66.7396 240.974 68.1061C241.46 68.7946 242.108 69.3451 242.859 69.7055C243.61 70.0659 244.438 70.2244 245.266 70.1659C246.412 70.1634 247.543 69.9016 248.579 69.3991C249.614 68.8967 250.529 68.1661 251.256 67.2596C252.872 65.4769 253.913 63.2289 254.239 60.8203C254.532 58.5338 254.206 56.7407 253.249 55.4208C252.753 54.7546 252.103 54.2249 251.357 53.8793C250.611 53.5338 249.794 53.3832 248.977 53.4411H248.99ZM249.641 65.8131C248.541 67.4862 247.16 68.3128 245.52 68.3128C245.02 68.3483 244.521 68.2553 244.066 68.0422C243.611 67.8291 243.215 67.5028 242.915 67.0929C242.342 66.2841 242.153 65.0909 242.348 63.5133C242.587 61.5165 243.29 59.6076 244.4 57.9472C245.5 56.2941 246.854 55.4675 248.482 55.4675C248.957 55.4478 249.431 55.5348 249.87 55.7225C250.309 55.9103 250.702 56.1941 251.022 56.554C251.673 57.2806 251.901 58.4538 251.673 60.0937C251.442 62.1386 250.741 64.0984 249.628 65.8131H249.641ZM279.908 54.4809C278.64 53.6468 277.147 53.2432 275.642 53.3277C272.478 53.3277 270.121 54.5343 268.597 56.934L270.733 57.9139C271.234 57.0697 271.945 56.3776 272.795 55.9089C273.644 55.4402 274.6 55.2119 275.564 55.2475C277.941 55.2475 279.002 56.2541 278.749 58.2539C278.656 58.8152 278.528 59.3697 278.364 59.9137C277.127 59.8537 276.365 59.827 276.033 59.827C272.413 59.827 269.86 60.3603 268.395 61.4535C267.733 61.8907 267.169 62.4657 266.74 63.1411C266.31 63.8164 266.024 64.577 265.901 65.3731C265.798 65.9796 265.83 66.602 265.995 67.1941C266.159 67.7862 266.452 68.3326 266.852 68.7927C267.291 69.2508 267.821 69.6069 268.406 69.8369C268.992 70.0669 269.619 70.1655 270.244 70.1259C272.556 70.1259 274.646 68.9394 276.509 66.5863C276.226 67.3255 276.036 68.0982 275.942 68.886C275.909 69.0927 275.883 69.366 275.851 69.686H278.286C278.286 69.326 278.286 69.106 278.319 69.0194C278.484 68.027 278.715 67.0471 279.009 66.0864C280.435 61.1735 281.164 58.4272 281.236 57.8472C281.356 57.2173 281.293 56.5651 281.055 55.9714C280.816 55.3778 280.413 54.8688 279.895 54.5076L279.908 54.4809ZM274.887 66.373C273.804 67.4658 272.363 68.1073 270.843 68.1728C270.487 68.2052 270.128 68.1583 269.79 68.0352C269.453 67.912 269.146 67.7157 268.89 67.4595C268.675 67.1963 268.521 66.8874 268.437 66.5553C268.354 66.2232 268.344 65.8763 268.408 65.5397C268.738 62.9756 271.126 61.6935 275.571 61.6935C276.222 61.6935 276.938 61.6935 277.668 61.7802C277.179 63.5582 276.211 65.1592 274.874 66.3997L274.887 66.373ZM267.991 53.3744C267.802 53.3744 267.627 53.3744 267.477 53.3744C266.275 53.3652 265.102 53.7507 264.13 54.4743C262.913 55.4479 261.881 56.6407 261.082 57.9939L262.385 53.8277H260.008L255.372 69.7193H257.755L258.797 66.1597C259.29 64.2026 259.97 62.3003 260.828 60.4803C261.294 59.5964 261.846 58.7633 262.476 57.9939C263 57.358 263.631 56.823 264.338 56.4141C265.076 56.0259 265.899 55.8378 266.728 55.8675H267.308L267.991 53.3744ZM233.629 53.4411C231.773 53.4411 230.054 54.4009 228.479 56.3474L230.816 48.3483H228.407L222.182 69.7326H223.217L224.969 66.9196C225.75 69.086 227.228 70.1726 229.384 70.1726C231.539 70.1726 233.466 69.1594 235.094 67.1196C236.707 65.1541 237.731 62.7538 238.044 60.207C238.305 58.1672 238.044 56.5363 237.263 55.3142C236.875 54.6992 236.333 54.2013 235.695 53.872C235.056 53.5427 234.343 53.394 233.629 53.4411ZM233.362 65.7664C232.255 67.4862 230.946 68.3461 229.455 68.3461C228.976 68.3589 228.5 68.255 228.068 68.0429C227.636 67.8309 227.258 67.5167 226.968 67.1262C226.642 66.6384 226.416 66.0879 226.304 65.5081C226.192 64.9283 226.197 64.3313 226.317 63.7533C226.605 61.7242 227.394 59.8038 228.609 58.1739C229.911 56.3874 231.292 55.5075 232.815 55.5075C233.242 55.4917 233.666 55.5896 234.045 55.7918C234.424 55.9939 234.745 56.2933 234.977 56.6607C235.511 57.6371 235.684 58.7774 235.466 59.8737C235.215 61.9771 234.496 63.9933 233.362 65.7664ZM198.44 48.3149H195.894L189.676 69.6993H202.582L203.233 67.4262H192.879L198.44 48.3149ZM219.343 54.5076C218.082 53.6668 216.594 53.254 215.091 53.3277C211.917 53.3277 209.564 54.5298 208.032 56.934L210.174 57.9139C210.673 57.0708 211.383 56.3792 212.23 55.9105C213.077 55.4417 214.031 55.2129 214.993 55.2475C217.383 55.2475 218.438 56.2541 218.177 58.2539C218.094 58.8164 217.968 59.3714 217.799 59.9137C216.575 59.8537 215.794 59.827 215.475 59.827C211.854 59.827 209.308 60.3603 207.837 61.4535C207.175 61.8898 206.611 62.4646 206.182 63.1403C205.754 63.8159 205.47 64.5769 205.349 65.3731C205.242 65.9791 205.271 66.6021 205.435 67.1947C205.598 67.7873 205.892 68.3339 206.293 68.7927C206.73 69.2497 207.258 69.6053 207.842 69.8353C208.425 70.0653 209.049 70.1644 209.673 70.1259C211.991 70.1259 214.075 68.9394 215.944 66.5863C215.667 67.3275 215.477 68.0994 215.377 68.886C215.377 69.0927 215.325 69.366 215.286 69.686H217.721C217.721 69.326 217.721 69.106 217.76 69.0194C217.915 68.0284 218.133 67.0486 218.411 66.0864C219.853 61.1802 220.619 58.4361 220.71 57.8539C220.827 57.2203 220.76 56.5655 220.517 55.9706C220.274 55.3758 219.866 54.8671 219.343 54.5076ZM214.309 66.3997C213.23 67.4942 211.79 68.1362 210.272 68.1995C209.915 68.2337 209.555 68.1876 209.218 68.0644C208.88 67.9412 208.573 67.7438 208.318 67.4862C208.104 67.223 207.949 66.9141 207.866 66.582C207.782 66.2499 207.772 65.903 207.837 65.5664C208.162 63.0022 210.55 61.7202 214.999 61.7202C215.651 61.7202 216.373 61.7202 217.103 61.8068C216.612 63.5761 215.643 65.1679 214.309 66.3997ZM352.63 61.3269C351.866 60.9491 351.059 60.6714 350.227 60.5003L349.296 60.2736C348.436 60.1214 347.611 59.8097 346.86 59.3537C346.661 59.1691 346.513 58.9336 346.432 58.6712C346.351 58.4088 346.339 58.1291 346.398 57.8606C346.451 57.5133 346.573 57.1808 346.757 56.8838C346.941 56.5868 347.182 56.3317 347.466 56.1341C348.14 55.6278 348.962 55.3716 349.797 55.4075C351.829 55.4075 353.053 56.2874 353.528 58.0739L355.625 57.2073C355.03 54.7142 353.179 53.4699 350.071 53.4744C348.531 53.4119 347.02 53.9103 345.806 54.8809C344.759 55.7065 344.071 56.9204 343.891 58.2605C343.774 58.9706 343.884 59.7005 344.206 60.341C344.527 60.9815 345.043 61.4981 345.675 61.8135C346.51 62.2074 347.383 62.5091 348.28 62.7134L349.074 62.92C349.928 63.0439 350.737 63.388 351.425 63.9199C351.595 64.1164 351.718 64.3504 351.785 64.6037C351.851 64.857 351.86 65.1226 351.809 65.3798C351.758 65.7812 351.623 66.1668 351.416 66.5115C351.208 66.8561 350.932 67.1519 350.605 67.3795C349.792 67.9351 348.826 68.2085 347.85 68.1595C345.46 68.1595 344.041 67.1129 343.559 65.0265L341.254 65.7997C341.866 67.6129 342.726 68.7927 343.859 69.3193C345.013 69.866 346.273 70.1394 347.544 70.1193C349.214 70.1875 350.855 69.6597 352.187 68.6261C352.751 68.1969 353.226 67.6569 353.584 67.0377C353.941 66.4185 354.175 65.7325 354.271 65.0198C354.388 64.261 354.275 63.4837 353.945 62.7934C353.671 62.1733 353.21 61.6593 352.63 61.3269ZM316.672 54.4476C315.451 55.4287 314.416 56.6306 313.618 57.9939L314.921 53.8277H312.525L307.882 69.7193H310.278L311.313 66.1597C311.805 64.2031 312.483 62.3007 313.338 60.4803C313.814 59.595 314.377 58.7618 315.018 57.9939C315.536 57.373 316.155 56.8496 316.848 56.4474C317.584 56.0607 318.405 55.8725 319.232 55.9008H319.811L320.534 53.3944C320.345 53.3944 320.169 53.3944 320.019 53.3944C318.823 53.373 317.651 53.7419 316.672 54.4476ZM318.522 69.6993H320.931L325.548 53.8077H323.139L318.522 69.6993ZM335.641 53.4411C334.5 53.4468 333.373 53.7068 332.34 54.2029C331.306 54.699 330.391 55.4194 329.657 56.3141C328.015 58.114 326.961 60.3925 326.642 62.8334C326.298 64.6559 326.652 66.5439 327.632 68.1061C328.565 69.4793 329.997 70.1659 331.929 70.1659C333.075 70.1607 334.205 69.8976 335.241 69.3953C336.276 68.8931 337.191 68.1639 337.92 67.2596C339.53 65.4733 340.571 63.2271 340.902 60.8203C341.195 58.5338 340.863 56.7407 339.906 55.4208C339.41 54.756 338.761 54.2273 338.017 53.8818C337.272 53.5363 336.456 53.3849 335.641 53.4411ZM336.292 65.8131C335.185 67.4862 333.811 68.3128 332.164 68.3128C331.664 68.3489 331.164 68.2562 330.709 68.0431C330.254 67.8299 329.859 67.5032 329.559 67.0929C328.973 66.2841 328.782 65.0909 328.986 63.5133C329.224 61.5165 329.928 59.6076 331.037 57.9472C332.135 56.2941 333.499 55.4675 335.126 55.4675C335.599 55.4497 336.071 55.5378 336.507 55.7254C336.943 55.9131 337.334 56.1958 337.653 56.554C338.304 57.2806 338.539 58.4538 338.304 60.0937C338.085 62.1352 337.398 64.0948 336.299 65.8131H336.292ZM323.594 51.2146H326.707L327.553 48.3149H324.441L323.594 51.2146ZM301.513 53.4411C300.372 53.4455 299.245 53.7048 298.211 54.2011C297.178 54.6973 296.262 55.4184 295.529 56.3141C293.881 58.1101 292.824 60.3902 292.508 62.8334C292.166 64.6567 292.523 66.5446 293.504 68.1061C294.435 69.4793 295.861 70.1659 297.802 70.1659C298.947 70.1607 300.078 69.8976 301.113 69.3953C302.148 68.8931 303.063 68.1639 303.792 67.2596C305.401 65.4729 306.439 63.2266 306.768 60.8203C307.055 58.5338 306.736 56.7407 305.778 55.4208C305.282 54.7565 304.633 54.228 303.889 53.8826C303.145 53.5372 302.329 53.3855 301.513 53.4411ZM302.164 65.8131C301.064 67.4862 299.69 68.3128 298.043 68.3128C297.543 68.3489 297.043 68.2562 296.588 68.0431C296.133 67.8299 295.738 67.5032 295.438 67.0929C294.852 66.2841 294.663 65.0909 294.871 63.5133C295.108 61.5183 295.807 59.61 296.91 57.9472C298.017 56.2941 299.377 55.4675 301.012 55.4675C301.486 55.4488 301.958 55.5363 302.396 55.724C302.833 55.9117 303.226 56.195 303.545 56.554C304.196 57.2806 304.431 58.4538 304.196 60.0937C303.968 62.1373 303.272 64.0969 302.164 65.8131Z" fill="white"/>
<path d="M160.191 64.6599H151.979C154.768 73.9354 155.465 83.7374 154.019 93.3285C152.573 102.92 149.021 112.05 143.63 120.033C138.24 128.017 131.151 134.645 122.898 139.419C114.644 144.193 105.441 146.99 95.9792 147.598V155.743C106.493 155.181 116.749 152.212 125.994 147.056C135.238 141.899 143.235 134.685 149.396 125.946C155.557 117.207 159.725 107.164 161.593 96.558C163.461 85.9517 162.982 75.0515 160.191 64.6599ZM92.0266 19.3981C100.894 19.3963 109.661 21.3259 117.745 25.0588C125.828 28.7917 133.043 34.2425 138.911 41.0491L144.485 35.2097C135.28 24.7234 123.28 17.2226 109.962 13.6314C96.6449 10.0401 82.5922 10.5152 69.5354 14.9983C56.4786 19.4813 44.988 27.7764 36.4792 38.8616C27.9705 49.9468 22.8152 63.3379 21.6486 77.3852H29.6058C31.118 61.5103 38.347 46.7795 49.8853 36.0607C61.4236 25.3419 76.4456 19.4023 92.0266 19.3981ZM97.1904 59.9137H106.059V55.3276H148.724V59.9137H157.593V46.2485H97.1904V59.9137ZM29.3975 85.531H21.4532C21.9162 103.661 29.0244 120.95 41.3656 133.963C53.7068 146.976 70.3781 154.76 88.0675 155.77V147.624C72.489 146.618 57.8387 139.694 46.9863 128.208C36.1339 116.723 29.8614 101.503 29.3975 85.531ZM126.206 111.468C132.334 103.216 134.098 94.5633 134.144 89.8038V61.3269H125.282V89.7972C125.334 92.2302 123.895 99.7961 119.18 105.922C114.811 111.615 107.967 116.628 95.9662 117.461V126.573C110.617 125.767 120.535 119.114 126.206 111.468ZM49.9092 59.4138V89.8038C50.0069 94.47 52.2013 102.849 58.6544 111.188C64.4367 118.601 74.087 125.26 88.0089 126.487V117.388C76.887 116.208 70.0823 111.122 65.5502 105.469C60.432 99.1895 58.6804 91.3903 58.7911 89.8038V59.4138H49.9092ZM87.501 48.6616C83.1708 45.5419 78.2545 44.8554 74.2042 44.822H45.5464V53.8877H74.1977C77.18 53.8877 80.3447 54.5543 82.3503 56.0341C84.3559 57.514 85.8536 59.6404 85.9447 65.0932C85.8731 70.3859 84.1605 72.7257 81.9531 74.4855C79.6678 76.0808 76.9637 76.9291 74.1977 76.9186H65.0814V85.9909H74.1977C78.8592 86.0214 83.4132 84.5576 87.221 81.8047C91.5838 78.6384 94.9308 72.7923 94.8527 65.0865C94.9178 57.5273 91.8834 51.7279 87.501 48.6616Z" fill="white"/>
</g>
<defs>
<filter id="filter0_d_25_80" x="0.522949" y="0" width="376.02" height="193" filterUnits="userSpaceOnUse" color-interpolation-filters="sRGB">
<feFlood flood-opacity="0" result="BackgroundImageFix"/>
<feColorMatrix in="SourceAlpha" type="matrix" values="0 0 0 0 0 0 0 0 0 0 0 0 0 0 0 0 0 0 127 0" result="hardAlpha"/>
<feOffset dy="4"/>
<feGaussianBlur stdDeviation="2"/>
<feComposite in2="hardAlpha" operator="out"/>
<feColorMatrix type="matrix" values="0 0 0 0 0 0 0 0 0 0 0 0 0 0 0 0 0 0 0.25 0"/>
<feBlend mode="normal" in2="BackgroundImageFix" result="effect1_dropShadow_25_80"/>
<feBlend mode="normal" in="SourceGraphic" in2="effect1_dropShadow_25_80" result="shape"/>
</filter>
</defs>
</svg>
