<svg width="377" height="193" viewBox="0 0 377 193" fill="none" xmlns="http://www.w3.org/2000/svg">
<g filter="url(#filter0_d_25_80)">
<rect x="4" width="368.02" height="185" rx="20" fill="#03491D"/>
<path d="M214.563 88.1329C212.554 87.3719 209.486 86.9943 205.358 87.0001H186.848L177 127.515H188.183L191.84 112.477H199.574C202.086 112.544 204.599 112.362 207.086 111.932C208.955 111.496 210.77 110.769 212.485 109.77C214.393 108.72 216.097 107.193 217.484 105.29C218.756 103.614 219.712 101.622 220.283 99.4529C220.979 96.6049 220.7 94.1979 219.448 92.232C218.215 90.279 216.506 88.845 214.563 88.1329ZM209.107 99.7297C208.649 101.299 207.742 102.618 206.551 103.448C205.187 104.546 203.13 105.083 200.402 105.083H193.261L195.874 94.3421H203.016C205.522 94.3421 207.265 94.835 208.25 95.8036C208.725 96.2573 209.065 96.8855 209.22 97.5935C209.374 98.3015 209.335 99.0511 209.107 99.7297ZM238.594 121.851C237.033 121.958 235.493 121.377 234.259 120.216C233.209 119.135 232.945 117.518 233.459 115.382C233.559 114.984 233.681 114.517 233.838 113.99H256.176C257.604 108.029 257.056 103.69 254.533 100.975C252.005 98.2595 248.492 96.9105 244.021 96.9105C239.358 96.8061 234.767 98.3248 230.795 101.286C227.178 103.843 224.492 107.96 223.276 112.814C222.495 116.002 222.614 118.746 223.633 121.047C224.672 123.385 226.329 125.234 228.339 126.296C230.476 127.489 233.273 128.086 236.73 128.086C244.666 128.086 250.772 124.627 255.047 117.708L245.906 117.103C244.44 120.268 242.003 121.851 238.594 121.851ZM243.014 102.687C246.585 102.687 248.07 104.737 247.406 108.853H235.052C236.509 104.737 239.163 102.681 243.014 102.687ZM277.928 115.356L275.564 97.5331H264.745L270.094 127.515C269.524 128.618 268.764 129.559 267.866 130.274C267.023 130.931 265.581 131.251 263.581 131.251C261.931 131.242 260.282 131.103 258.647 130.836L256.997 137.633C258.602 137.856 260.216 137.974 261.832 137.988C264.236 138.081 266.635 137.642 268.909 136.69C270.604 135.926 272.153 134.749 273.458 133.231C275.191 131.061 276.799 128.749 278.271 126.313L296.124 97.5764H288.69L277.928 115.356ZM317.919 88.0897L308.936 88.6691L305.965 97.5331H299.873L298.195 104.408H303.708L300.309 118.357C299.416 122.05 299.68 124.618 301.13 126.019C302.58 127.42 305.415 128.138 309.7 128.138C311.905 128.06 314.105 127.844 316.291 127.489L317.891 120.925C316.641 121.003 315.541 121.055 314.606 121.055C312.578 121.055 311.349 120.787 310.921 120.251C310.514 119.715 310.492 118.66 310.885 117.086L314.02 104.408H321.483L323.147 97.5331H315.663L317.919 88.0897ZM347.063 96.9105C342.402 96.8073 337.814 98.326 333.845 101.286C329.964 104.221 327.453 108.072 326.31 112.84C325.525 116.028 325.639 118.772 326.653 121.072C327.699 123.408 329.358 125.254 331.366 126.322C333.495 127.515 336.292 128.112 339.758 128.112C347.699 128.112 353.802 124.653 358.068 117.734L348.927 117.129C347.499 120.277 345.063 121.851 341.621 121.851C340.06 121.963 338.519 121.382 337.287 120.216C336.237 119.135 335.965 117.518 336.487 115.382C336.587 114.984 336.708 114.517 336.858 113.99H359.225C360.653 108.029 360.108 103.69 357.589 100.975C355.071 98.2595 351.572 96.9047 347.092 96.9105H347.063ZM350.441 108.853H338.101C339.558 104.737 342.216 102.681 346.078 102.687C349.672 102.687 351.126 104.743 350.441 108.853Z" fill="white"/>
<path d="M301.164 49.844L298.557 50.1258L297.358 55.0346H294.701L294.072 57.4848H296.672L294.244 67.1403C293.864 68.5199 293.563 69.929 293.344 71.3577C293.015 74.3371 294.258 75.8226 297.086 75.8226C297.522 75.8226 298.207 75.7714 299.15 75.6519L299.636 75.5836L300.193 73.0736C299.129 73.2102 298.35 73.2785 297.843 73.2785C296.415 73.2785 295.779 72.5187 295.943 71.0333C296.073 70.1659 296.252 69.3101 296.479 68.4721L299.264 57.4506H303.114L303.735 55.0005H299.871L301.164 49.844ZM255.052 54.5651C253.799 54.5678 252.562 54.8987 251.429 55.5344C250.295 56.1702 249.291 57.0952 248.489 58.2446C246.68 60.5448 245.522 63.4649 245.175 66.5939C244.875 69.3429 245.232 71.5967 246.26 73.3468C246.793 74.2286 247.504 74.9336 248.327 75.3952C249.151 75.8567 250.059 76.0597 250.967 75.9848C252.224 75.9816 253.464 75.6463 254.6 75.0028C255.736 74.3593 256.739 73.4236 257.537 72.2626C259.309 69.9795 260.45 67.1005 260.808 64.0157C261.129 61.0875 260.772 58.791 259.722 57.1006C259.178 56.2473 258.465 55.569 257.647 55.1264C256.829 54.6838 255.933 54.491 255.037 54.5651H255.052ZM255.766 70.4101C254.559 72.5529 253.045 73.6115 251.245 73.6115C250.698 73.657 250.149 73.5379 249.651 73.265C249.152 72.9921 248.718 72.5741 248.389 72.0492C247.76 71.0133 247.553 69.4852 247.767 67.4647C248.029 64.9075 248.8 62.4627 250.017 60.3362C251.224 58.219 252.709 57.1604 254.494 57.1604C255.016 57.1351 255.535 57.2466 256.016 57.487C256.497 57.7274 256.929 58.0909 257.28 58.5519C257.994 59.4825 258.244 60.985 257.994 63.0852C257.74 65.7041 256.972 68.2141 255.751 70.4101H255.766ZM288.959 55.8969C287.569 54.8286 285.932 54.3117 284.281 54.4199C280.811 54.4199 278.226 55.9652 276.554 59.0386L278.897 60.2935C279.446 59.2124 280.227 58.3259 281.158 57.7257C282.09 57.1254 283.138 56.833 284.196 56.8786C286.802 56.8786 287.966 58.1678 287.688 60.7289C287.587 61.4478 287.446 62.158 287.267 62.8547C285.91 62.7778 285.074 62.7437 284.71 62.7437C280.739 62.7437 277.94 63.4267 276.333 64.8267C275.608 65.3866 274.989 66.123 274.518 66.988C274.046 67.853 273.733 68.827 273.598 69.8466C273.485 70.6233 273.52 71.4205 273.701 72.1788C273.881 72.9371 274.202 73.6369 274.641 74.2262C275.122 74.8128 275.704 75.2688 276.346 75.5634C276.988 75.858 277.675 75.9842 278.361 75.9336C280.896 75.9336 283.189 74.414 285.231 71.4004C284.922 72.3471 284.713 73.3366 284.61 74.3457C284.574 74.6103 284.546 74.9604 284.51 75.3701H287.181C287.181 74.9091 287.181 74.6274 287.217 74.5164C287.398 73.2454 287.651 71.9905 287.974 70.7601C289.538 64.4682 290.337 60.9509 290.416 60.2081C290.548 59.4013 290.479 58.566 290.217 57.8058C289.956 57.0455 289.513 56.3936 288.945 55.931L288.959 55.8969ZM283.453 71.1272C282.265 72.5268 280.685 73.3484 279.018 73.4322C278.627 73.4738 278.233 73.4136 277.863 73.2559C277.494 73.0983 277.157 72.8468 276.876 72.5187C276.64 72.1816 276.471 71.786 276.379 71.3607C276.288 70.9354 276.277 70.491 276.347 70.06C276.709 66.7761 279.328 65.1341 284.203 65.1341C284.917 65.1341 285.703 65.1341 286.502 65.2451C285.967 67.5222 284.905 69.5727 283.439 71.1613L283.453 71.1272ZM275.89 54.4797C275.683 54.4797 275.49 54.4797 275.326 54.4797C274.008 54.4679 272.721 54.9616 271.655 55.8883C270.321 57.1353 269.189 58.6629 268.313 60.396L269.741 55.0602H267.135L262.05 75.4128H264.664L265.807 70.854C266.347 68.3476 267.093 65.9112 268.035 63.5803C268.545 62.4483 269.15 61.3814 269.841 60.396C270.416 59.5815 271.108 58.8963 271.884 58.3726C272.693 57.8756 273.596 57.6346 274.505 57.6726H275.14L275.89 54.4797ZM238.205 54.5651C236.17 54.5651 234.284 55.7944 232.556 58.2873L235.12 48.0427H232.477L225.65 75.4299H226.786L228.707 71.8272C229.564 74.6018 231.185 75.9934 233.549 75.9934C235.912 75.9934 238.026 74.6957 239.812 72.0833C241.58 69.5662 242.704 66.4921 243.047 63.2303C243.332 60.6179 243.047 58.5292 242.19 56.964C241.764 56.1764 241.171 55.5387 240.47 55.117C239.77 54.6953 238.988 54.5048 238.205 54.5651ZM237.912 70.3503C236.698 72.5529 235.263 73.6542 233.627 73.6542C233.101 73.6706 232.58 73.5375 232.106 73.2659C231.631 72.9943 231.218 72.5919 230.899 72.0919C230.542 71.4671 230.294 70.7621 230.171 70.0195C230.049 69.277 230.053 68.5124 230.185 67.7721C230.501 65.1733 231.366 62.7139 232.699 60.6265C234.127 58.3385 235.641 57.2116 237.312 57.2116C237.78 57.1913 238.245 57.3168 238.661 57.5757C239.076 57.8346 239.429 58.218 239.683 58.6885C240.269 59.939 240.459 61.3994 240.219 62.8034C239.944 65.4973 239.155 68.0795 237.912 70.3503ZM199.612 48H196.82L190 75.3872H204.154L204.869 72.476H193.514L199.612 48ZM222.536 55.931C221.153 54.8542 219.522 54.3255 217.873 54.4199C214.393 54.4199 211.812 55.9595 210.132 59.0386L212.481 60.2935C213.028 59.2137 213.807 58.328 214.736 57.7277C215.664 57.1274 216.711 56.8343 217.766 56.8786C220.387 56.8786 221.544 58.1678 221.258 60.7289C221.167 61.4494 221.029 62.1602 220.844 62.8547C219.501 62.7778 218.644 62.7437 218.294 62.7437C214.324 62.7437 211.531 63.4267 209.918 64.8267C209.192 65.3854 208.573 66.1217 208.103 66.987C207.633 67.8523 207.322 68.8269 207.189 69.8466C207.072 70.6227 207.104 71.4206 207.284 72.1795C207.463 72.9385 207.785 73.6385 208.225 74.2262C208.704 74.8115 209.284 75.2668 209.923 75.5614C210.562 75.856 211.247 75.9829 211.931 75.9336C214.474 75.9336 216.759 74.414 218.809 71.4004C218.506 72.3496 218.297 73.3382 218.187 74.3457C218.187 74.6103 218.13 74.9604 218.087 75.3701H220.758C220.758 74.9091 220.758 74.6274 220.801 74.5164C220.971 73.2472 221.21 71.9925 221.515 70.7601C223.096 64.4767 223.936 60.9623 224.036 60.2167C224.165 59.4053 224.091 58.5666 223.824 57.8048C223.558 57.0429 223.11 56.3914 222.536 55.931ZM217.016 71.1613C215.832 72.5631 214.253 73.3853 212.588 73.4664C212.197 73.5102 211.803 73.4512 211.433 73.2934C211.062 73.1356 210.726 72.8828 210.446 72.5529C210.211 72.2158 210.041 71.8202 209.95 71.3949C209.858 70.9695 209.847 70.5252 209.918 70.0942C210.275 66.8102 212.893 65.1682 217.773 65.1682C218.487 65.1682 219.28 65.1682 220.08 65.2792C219.541 67.5451 218.479 69.5838 217.016 71.1613ZM368.715 64.6645C367.877 64.1807 366.992 63.825 366.08 63.6059L365.058 63.3157C364.116 63.1207 363.21 62.7214 362.388 62.1375C362.169 61.9011 362.007 61.5994 361.918 61.2634C361.829 60.9274 361.816 60.5691 361.881 60.2252C361.939 59.7804 362.073 59.3546 362.274 58.9743C362.476 58.5939 362.74 58.2671 363.052 58.0141C363.791 57.3657 364.692 57.0375 365.608 57.0835C367.837 57.0835 369.179 58.2104 369.7 60.4984L372 59.3886C371.348 56.1957 369.317 54.6021 365.908 54.6078C364.22 54.5278 362.563 55.166 361.231 56.4091C360.083 57.4665 359.329 59.0211 359.131 60.7374C359.002 61.6468 359.123 62.5816 359.476 63.4019C359.829 64.2222 360.394 64.8838 361.088 65.2878C362.003 65.7923 362.961 66.1786 363.944 66.4403L364.816 66.7049C365.752 66.8636 366.639 67.3043 367.394 67.9855C367.58 68.2371 367.715 68.5369 367.788 68.8612C367.861 69.1856 367.87 69.5258 367.815 69.8551C367.758 70.3692 367.611 70.8631 367.384 71.3045C367.156 71.7459 366.853 72.1248 366.494 72.4163C365.603 73.1277 364.544 73.4779 363.473 73.4151C360.852 73.4151 359.295 72.0748 358.767 69.4027L356.239 70.393C356.91 72.7151 357.853 74.2262 359.095 74.9006C360.361 75.6007 361.743 75.9509 363.137 75.9251C364.969 76.0125 366.769 75.3365 368.229 74.0127C368.848 73.4631 369.369 72.7715 369.761 71.9785C370.153 71.1855 370.41 70.3069 370.515 69.3941C370.643 68.4224 370.519 67.4268 370.157 66.5427C369.857 65.7485 369.351 65.0903 368.715 64.6645ZM329.28 55.8542C327.941 57.1106 326.805 58.65 325.93 60.396L327.359 55.0602H324.731L319.639 75.4128H322.267L323.402 70.854C323.941 68.3481 324.685 65.9118 325.623 63.5803C326.145 62.4465 326.762 61.3794 327.466 60.396C328.033 59.6007 328.712 58.9304 329.473 58.4153C330.28 57.92 331.18 57.6791 332.086 57.7153H332.722L333.515 54.5053C333.308 54.5053 333.115 54.5053 332.951 54.5053C331.638 54.4779 330.353 54.9503 329.28 55.8542ZM331.308 75.3872H333.95L339.014 55.0346H336.371L331.308 75.3872ZM350.083 54.5651C348.831 54.5725 347.596 54.9054 346.462 55.5408C345.329 56.1762 344.325 57.0988 343.52 58.2446C341.719 60.5498 340.564 63.4679 340.213 66.5939C339.836 68.928 340.225 71.3461 341.299 73.3468C342.322 75.1055 343.894 75.9848 346.012 75.9848C347.269 75.9781 348.508 75.6412 349.644 74.9979C350.779 74.3547 351.782 73.4209 352.582 72.2626C354.348 69.9749 355.489 67.0982 355.853 64.0157C356.175 61.0875 355.81 58.791 354.761 57.1006C354.217 56.2492 353.505 55.572 352.688 55.1295C351.872 54.6871 350.977 54.4932 350.083 54.5651ZM350.797 70.4101C349.583 72.5529 348.076 73.6115 346.269 73.6115C345.722 73.6578 345.173 73.539 344.674 73.266C344.175 72.9931 343.741 72.5747 343.413 72.0492C342.77 71.0133 342.561 69.4852 342.784 67.4647C343.046 64.9075 343.817 62.4627 345.034 60.3362C346.238 58.219 347.733 57.1604 349.519 57.1604C350.037 57.1376 350.554 57.2503 351.033 57.4907C351.511 57.731 351.94 58.0932 352.29 58.5519C353.004 59.4825 353.261 60.985 353.004 63.0852C352.763 65.6997 352.009 68.2095 350.804 70.4101H350.797ZM336.871 51.7137H340.285L341.213 48H337.8L336.871 51.7137ZM312.654 54.5651C311.403 54.5707 310.167 54.9029 309.033 55.5384C307.9 56.1739 306.896 57.0975 306.091 58.2446C304.283 60.5448 303.125 63.4649 302.778 66.5939C302.404 68.9291 302.795 71.3469 303.871 73.3468C304.892 75.1055 306.456 75.9848 308.584 75.9848C309.84 75.9781 311.08 75.6412 312.216 74.9979C313.351 74.3547 314.354 73.4209 315.154 72.2626C316.918 69.9744 318.057 67.0975 318.418 64.0157C318.732 61.0875 318.382 58.791 317.332 57.1006C316.788 56.2497 316.076 55.573 315.26 55.1306C314.444 54.6882 313.549 54.4939 312.654 54.5651ZM313.369 70.4101C312.162 72.5529 310.655 73.6115 308.848 73.6115C308.301 73.6578 307.752 73.539 307.253 73.266C306.754 72.9931 306.32 72.5747 305.992 72.0492C305.349 71.0133 305.142 69.4852 305.37 67.4647C305.63 64.9097 306.396 62.4657 307.605 60.3362C308.82 58.219 310.312 57.1604 312.105 57.1604C312.625 57.1364 313.143 57.2485 313.622 57.4888C314.102 57.7292 314.532 58.092 314.883 58.5519C315.597 59.4825 315.854 60.985 315.597 63.0852C315.347 65.7024 314.583 68.2121 313.369 70.4101Z" fill="white"/>
<path d="M156.235 68.3719H147.225C150.284 80.2453 151.049 92.7926 149.463 105.07C147.876 117.347 143.978 129.035 138.064 139.254C132.149 149.474 124.371 157.958 115.314 164.07C106.258 170.181 96.1585 173.76 85.7765 174.539V184.966C97.3129 184.246 108.567 180.446 118.711 173.845C128.855 167.244 137.63 158.01 144.39 146.823C151.151 135.636 155.724 122.781 157.774 109.204C159.824 95.6271 159.298 81.674 156.235 68.3719ZM81.4394 10.4333C91.1699 10.431 100.79 12.901 109.659 17.6795C118.529 22.4579 126.446 29.4353 132.885 38.1483L139.001 30.6734C128.901 17.2502 115.733 7.64856 101.12 3.05145C86.507 -1.54566 71.0871 -0.937437 56.76 4.80119C42.4329 10.5398 29.8244 21.1582 20.4879 35.3481C11.1513 49.538 5.49449 66.6797 4.21435 84.6613H12.9458C14.605 64.3402 22.5373 45.4836 35.1982 31.7628C47.8591 18.0419 64.3425 10.4387 81.4394 10.4333ZM87.1055 62.2965H96.8372V56.4258H143.652V62.2965H153.384V44.804H87.1055V62.2965ZM12.7171 95.0885H4C4.50802 118.297 12.3077 140.428 25.8496 157.086C39.3915 173.743 57.6846 183.708 77.0951 185V174.573C60.0009 173.285 43.9253 164.421 32.0171 149.719C20.1089 135.017 13.2262 115.534 12.7171 95.0885ZM118.944 128.29C125.668 117.726 127.604 106.651 127.654 100.558V64.1055H117.93V100.55C117.987 103.664 116.408 113.349 111.235 121.191C106.44 128.478 98.9307 134.895 85.7622 135.961V147.626C101.839 146.593 112.721 138.077 118.944 128.29ZM35.2244 61.6565V100.558C35.3316 106.531 37.7395 117.257 44.8204 127.932C51.1653 137.42 61.7544 145.945 77.0308 147.515V135.867C64.8269 134.357 57.3601 127.846 52.3871 120.611C46.771 112.573 44.8489 102.589 44.9704 100.558V61.6565H35.2244ZM76.4735 47.8929C71.7219 43.8995 66.3273 43.0206 61.883 42.9779H30.4371V54.5827H61.8759C65.1484 54.5827 68.6209 55.436 70.8216 57.3303C73.0224 59.2246 74.6657 61.9466 74.7658 68.9266C74.6872 75.7017 72.808 78.6968 70.3858 80.9495C67.8782 82.9916 64.911 84.0775 61.8759 84.064H51.8727V95.6773H61.8759C66.991 95.7163 71.988 93.8425 76.1662 90.3186C80.9535 86.2655 84.6261 78.7821 84.5404 68.918C84.6118 59.2417 81.2822 51.818 76.4735 47.8929Z" fill="white"/>
</g>
<defs>
<filter id="filter0_d_25_80" x="0" y="0" width="376.02" height="193" filterUnits="userSpaceOnUse" color-interpolation-filters="sRGB">
<feFlood flood-opacity="0" result="BackgroundImageFix"/>
<feColorMatrix in="SourceAlpha" type="matrix" values="0 0 0 0 0 0 0 0 0 0 0 0 0 0 0 0 0 0 127 0" result="hardAlpha"/>
<feOffset dy="4"/>
<feGaussianBlur stdDeviation="2"/>
<feComposite in2="hardAlpha" operator="out"/>
<feColorMatrix type="matrix" values="0 0 0 0 0 0 0 0 0 0 0 0 0 0 0 0 0 0 0.25 0"/>
<feBlend mode="normal" in2="BackgroundImageFix" result="effect1_dropShadow_25_80"/>
<feBlend mode="normal" in="SourceGraphic" in2="effect1_dropShadow_25_80" result="shape"/>
</filter>
</defs>
</svg>
